<mxfile host="app.diagrams.net" modified="2023-07-31T10:32:46.618Z" agent="Mozilla/5.0 (Windows NT 10.0; Win64; x64) AppleWebKit/537.36 (KHTML, like Gecko) Chrome/115.0.0.0 Safari/537.36" version="21.6.6" etag="QxRjnkvTkb_A1qIrjRxa" type="device" pages="7">
  <diagram id="HC46uSh7Fia-uCw_zH4w" name="TipificaciÃ³n de APIs">
    <mxGraphModel dx="1050" dy="509" grid="1" gridSize="10" guides="1" tooltips="1" connect="1" arrows="1" fold="1" page="1" pageScale="1" pageWidth="827" pageHeight="1169" math="0" shadow="0">
      <root>
        <mxCell id="0" />
        <mxCell id="1" parent="0" />
        <mxCell id="FF-NRXENTc5_DPzfAjVm-1" value="" style="rounded=0;whiteSpace=wrap;html=1;fillColor=#f5f5f5;strokeColor=#666666;fontColor=#333333;" parent="1" vertex="1">
          <mxGeometry x="40" y="500" width="760" height="110" as="geometry" />
        </mxCell>
        <mxCell id="FF-NRXENTc5_DPzfAjVm-2" value="" style="rounded=0;whiteSpace=wrap;html=1;fillColor=#dae8fc;strokeColor=#6c8ebf;" parent="1" vertex="1">
          <mxGeometry x="40" y="210" width="760" height="260" as="geometry" />
        </mxCell>
        <mxCell id="FF-NRXENTc5_DPzfAjVm-3" value="API de BaaS" style="rounded=0;whiteSpace=wrap;html=1;fillColor=#dae8fc;strokeColor=#6c8ebf;fontSize=15;fontStyle=1" parent="1" vertex="1">
          <mxGeometry x="90" y="180" width="670" height="60" as="geometry" />
        </mxCell>
        <mxCell id="FF-NRXENTc5_DPzfAjVm-4" value="Customer" style="ellipse;whiteSpace=wrap;html=1;fillColor=none;" parent="1" vertex="1">
          <mxGeometry x="90" y="290" width="140" height="80" as="geometry" />
        </mxCell>
        <mxCell id="FF-NRXENTc5_DPzfAjVm-5" value="Accounts" style="ellipse;whiteSpace=wrap;html=1;fillColor=none;" parent="1" vertex="1">
          <mxGeometry x="260" y="290" width="140" height="80" as="geometry" />
        </mxCell>
        <mxCell id="FF-NRXENTc5_DPzfAjVm-6" value="Producto1" style="ellipse;whiteSpace=wrap;html=1;fillColor=none;" parent="1" vertex="1">
          <mxGeometry x="440" y="290" width="140" height="80" as="geometry" />
        </mxCell>
        <mxCell id="FF-NRXENTc5_DPzfAjVm-7" value="Producto2" style="ellipse;whiteSpace=wrap;html=1;fillColor=none;" parent="1" vertex="1">
          <mxGeometry x="630" y="290" width="140" height="80" as="geometry" />
        </mxCell>
        <mxCell id="FF-NRXENTc5_DPzfAjVm-8" value="" style="rounded=0;whiteSpace=wrap;html=1;fillColor=#d5e8d4;strokeColor=#82b366;" parent="1" vertex="1">
          <mxGeometry x="50" y="400" width="740" height="120" as="geometry" />
        </mxCell>
        <mxCell id="FF-NRXENTc5_DPzfAjVm-9" value="Accounts" style="ellipse;whiteSpace=wrap;html=1;fillColor=none;" parent="1" vertex="1">
          <mxGeometry x="60" y="445" width="110" height="55" as="geometry" />
        </mxCell>
        <mxCell id="FF-NRXENTc5_DPzfAjVm-10" value="Customer" style="ellipse;whiteSpace=wrap;html=1;fillColor=none;" parent="1" vertex="1">
          <mxGeometry x="210" y="445" width="110" height="55" as="geometry" />
        </mxCell>
        <mxCell id="FF-NRXENTc5_DPzfAjVm-11" value="System1" style="ellipse;whiteSpace=wrap;html=1;fillColor=none;" parent="1" vertex="1">
          <mxGeometry x="352.25" y="445" width="110" height="55" as="geometry" />
        </mxCell>
        <mxCell id="FF-NRXENTc5_DPzfAjVm-12" value="System3" style="ellipse;whiteSpace=wrap;html=1;fillColor=none;" parent="1" vertex="1">
          <mxGeometry x="640" y="445" width="110" height="55" as="geometry" />
        </mxCell>
        <mxCell id="FF-NRXENTc5_DPzfAjVm-15" value="WEB" style="outlineConnect=0;gradientColor=none;fontColor=#545B64;strokeColor=none;fillColor=#879196;dashed=0;verticalLabelPosition=bottom;verticalAlign=top;align=center;html=1;fontSize=12;fontStyle=0;aspect=fixed;shape=mxgraph.aws4.illustration_desktop;pointerEvents=1" parent="1" vertex="1">
          <mxGeometry x="90" y="9" width="100" height="91" as="geometry" />
        </mxCell>
        <mxCell id="FF-NRXENTc5_DPzfAjVm-16" value="MOBILE" style="outlineConnect=0;dashed=0;verticalLabelPosition=bottom;verticalAlign=top;align=center;html=1;shape=mxgraph.aws3.mobile_client;fillColor=#D2D3D3;gradientColor=none;" parent="1" vertex="1">
          <mxGeometry x="387" y="14.5" width="40.5" height="63" as="geometry" />
        </mxCell>
        <mxCell id="FF-NRXENTc5_DPzfAjVm-18" value="TERCEROS" style="pointerEvents=1;shadow=0;dashed=0;html=1;strokeColor=none;fillColor=#505050;labelPosition=center;verticalLabelPosition=bottom;verticalAlign=top;outlineConnect=0;align=center;shape=mxgraph.office.servers.survivable_branch_appliance;" parent="1" vertex="1">
          <mxGeometry x="623" y="14.5" width="47" height="65.5" as="geometry" />
        </mxCell>
        <mxCell id="FF-NRXENTc5_DPzfAjVm-19" value="API de Experiencia" style="rounded=0;whiteSpace=wrap;html=1;fillColor=#1ba1e2;strokeColor=#006EAF;fontColor=#ffffff;fontSize=15;fontStyle=1" parent="1" vertex="1">
          <mxGeometry x="90" y="130" width="670" height="40" as="geometry" />
        </mxCell>
        <mxCell id="FF-NRXENTc5_DPzfAjVm-20" value="Backend System&amp;nbsp;&lt;br&gt;&amp;nbsp;" style="text;html=1;strokeColor=none;fillColor=none;align=center;verticalAlign=middle;whiteSpace=wrap;rounded=0;fontSize=20;fontStyle=1" parent="1" vertex="1">
          <mxGeometry x="50" y="565" width="730" height="20" as="geometry" />
        </mxCell>
        <mxCell id="FF-NRXENTc5_DPzfAjVm-23" value="System2&lt;br&gt;" style="ellipse;whiteSpace=wrap;html=1;fillColor=#d5e8d4;strokeColor=#82b366;" parent="1" vertex="1">
          <mxGeometry x="500" y="445" width="110" height="55" as="geometry" />
        </mxCell>
        <mxCell id="FF-NRXENTc5_DPzfAjVm-24" value="API de Sistema" style="rounded=0;whiteSpace=wrap;html=1;fillColor=#d5e8d4;strokeColor=#82b366;fontSize=15;fontStyle=1" parent="1" vertex="1">
          <mxGeometry x="85" y="385" width="670" height="30" as="geometry" />
        </mxCell>
      </root>
    </mxGraphModel>
  </diagram>
  <diagram id="3Brndc8DG37Tek3NsMCw" name="Flujo de Invocacion APIs">
    <mxGraphModel dx="1877" dy="1678" grid="1" gridSize="10" guides="1" tooltips="1" connect="1" arrows="1" fold="1" page="1" pageScale="1" pageWidth="827" pageHeight="1169" math="0" shadow="0">
      <root>
        <mxCell id="0" />
        <mxCell id="1" parent="0" />
        <mxCell id="40XM61NViUXHkYQMIeTq-22" value="" style="rounded=0;whiteSpace=wrap;html=1;fillColor=#f8cecc;strokeColor=#b85450;fontSize=15;fontStyle=1;align=center;verticalAlign=top;" parent="1" vertex="1">
          <mxGeometry x="30" y="-30" width="780" height="270" as="geometry" />
        </mxCell>
        <mxCell id="40XM61NViUXHkYQMIeTq-2" value="" style="rounded=0;whiteSpace=wrap;html=1;fillColor=#dae8fc;strokeColor=#6c8ebf;" parent="1" vertex="1">
          <mxGeometry x="40" y="210" width="760" height="260" as="geometry" />
        </mxCell>
        <mxCell id="40XM61NViUXHkYQMIeTq-8" value="" style="rounded=0;whiteSpace=wrap;html=1;fillColor=#d5e8d4;strokeColor=#82b366;" parent="1" vertex="1">
          <mxGeometry x="50" y="400" width="740" height="120" as="geometry" />
        </mxCell>
        <mxCell id="40XM61NViUXHkYQMIeTq-28" style="edgeStyle=orthogonalEdgeStyle;rounded=0;orthogonalLoop=1;jettySize=auto;html=1;" parent="1" source="ncRmP7JQLXBlYjieJQq_-1" target="40XM61NViUXHkYQMIeTq-18" edge="1">
          <mxGeometry relative="1" as="geometry">
            <Array as="points">
              <mxPoint x="140" y="-90" />
              <mxPoint x="420" y="-90" />
            </Array>
          </mxGeometry>
        </mxCell>
        <mxCell id="ncRmP7JQLXBlYjieJQq_-1" value="WEB" style="outlineConnect=0;gradientColor=none;fontColor=#545B64;strokeColor=none;fillColor=#879196;dashed=0;verticalLabelPosition=bottom;verticalAlign=top;align=center;html=1;fontSize=12;fontStyle=0;aspect=fixed;shape=mxgraph.aws4.illustration_desktop;pointerEvents=1" parent="1" vertex="1">
          <mxGeometry x="90" y="-240" width="100" height="91" as="geometry" />
        </mxCell>
        <mxCell id="40XM61NViUXHkYQMIeTq-29" style="edgeStyle=orthogonalEdgeStyle;rounded=0;orthogonalLoop=1;jettySize=auto;html=1;" parent="1" source="x1A8U-2eV9EO53hyQ2WD-1" target="40XM61NViUXHkYQMIeTq-18" edge="1">
          <mxGeometry relative="1" as="geometry" />
        </mxCell>
        <mxCell id="x1A8U-2eV9EO53hyQ2WD-1" value="MOBILE" style="outlineConnect=0;dashed=0;verticalLabelPosition=bottom;verticalAlign=top;align=center;html=1;shape=mxgraph.aws3.mobile_client;fillColor=#D2D3D3;gradientColor=none;" parent="1" vertex="1">
          <mxGeometry x="399.75" y="-241.25" width="40.5" height="63" as="geometry" />
        </mxCell>
        <mxCell id="40XM61NViUXHkYQMIeTq-30" style="edgeStyle=orthogonalEdgeStyle;rounded=0;orthogonalLoop=1;jettySize=auto;html=1;" parent="1" source="nqy544Tw3MUClI0ptv1k-1" target="40XM61NViUXHkYQMIeTq-18" edge="1">
          <mxGeometry relative="1" as="geometry">
            <Array as="points">
              <mxPoint x="634" y="-120" />
              <mxPoint x="420" y="-120" />
            </Array>
          </mxGeometry>
        </mxCell>
        <mxCell id="nqy544Tw3MUClI0ptv1k-1" value="TERCEROS" style="pointerEvents=1;shadow=0;dashed=0;html=1;strokeColor=none;fillColor=#505050;labelPosition=center;verticalLabelPosition=bottom;verticalAlign=top;outlineConnect=0;align=center;shape=mxgraph.office.servers.survivable_branch_appliance;" parent="1" vertex="1">
          <mxGeometry x="610" y="-242.5" width="47" height="65.5" as="geometry" />
        </mxCell>
        <mxCell id="40XM61NViUXHkYQMIeTq-1" value="" style="rounded=0;whiteSpace=wrap;html=1;fillColor=#f5f5f5;strokeColor=#666666;fontColor=#333333;" parent="1" vertex="1">
          <mxGeometry x="40" y="500" width="370" height="170" as="geometry" />
        </mxCell>
        <mxCell id="40XM61NViUXHkYQMIeTq-3" value="&amp;nbsp; &amp;nbsp;API de BaaS" style="rounded=0;whiteSpace=wrap;html=1;fillColor=#dae8fc;strokeColor=#6c8ebf;fontSize=15;fontStyle=1" parent="1" vertex="1">
          <mxGeometry x="90" y="180" width="670" height="40" as="geometry" />
        </mxCell>
        <mxCell id="40XM61NViUXHkYQMIeTq-38" style="edgeStyle=orthogonalEdgeStyle;rounded=0;orthogonalLoop=1;jettySize=auto;html=1;elbow=vertical;" parent="1" source="40XM61NViUXHkYQMIeTq-4" target="40XM61NViUXHkYQMIeTq-5" edge="1">
          <mxGeometry relative="1" as="geometry" />
        </mxCell>
        <mxCell id="40XM61NViUXHkYQMIeTq-39" style="edgeStyle=orthogonalEdgeStyle;rounded=0;orthogonalLoop=1;jettySize=auto;html=1;entryX=0.5;entryY=0;entryDx=0;entryDy=0;elbow=vertical;" parent="1" source="40XM61NViUXHkYQMIeTq-4" target="40XM61NViUXHkYQMIeTq-9" edge="1">
          <mxGeometry relative="1" as="geometry" />
        </mxCell>
        <mxCell id="40XM61NViUXHkYQMIeTq-4" value="API A" style="ellipse;whiteSpace=wrap;html=1;fillColor=none;" parent="1" vertex="1">
          <mxGeometry x="84" y="280" width="140" height="80" as="geometry" />
        </mxCell>
        <mxCell id="40XM61NViUXHkYQMIeTq-5" value="API B" style="ellipse;whiteSpace=wrap;html=1;fillColor=none;" parent="1" vertex="1">
          <mxGeometry x="352.25" y="280" width="140" height="80" as="geometry" />
        </mxCell>
        <mxCell id="40XM61NViUXHkYQMIeTq-6" value="API C" style="ellipse;whiteSpace=wrap;html=1;fillColor=none;" parent="1" vertex="1">
          <mxGeometry x="590" y="280" width="140" height="80" as="geometry" />
        </mxCell>
        <mxCell id="40XM61NViUXHkYQMIeTq-9" value="API 1&amp;nbsp;" style="ellipse;whiteSpace=wrap;html=1;fillColor=none;" parent="1" vertex="1">
          <mxGeometry x="60" y="445" width="110" height="55" as="geometry" />
        </mxCell>
        <mxCell id="40XM61NViUXHkYQMIeTq-10" value="API&amp;nbsp; 2" style="ellipse;whiteSpace=wrap;html=1;fillColor=none;" parent="1" vertex="1">
          <mxGeometry x="210" y="445" width="110" height="55" as="geometry" />
        </mxCell>
        <mxCell id="40XM61NViUXHkYQMIeTq-11" value="API 3" style="ellipse;whiteSpace=wrap;html=1;fillColor=none;" parent="1" vertex="1">
          <mxGeometry x="352.25" y="445" width="110" height="55" as="geometry" />
        </mxCell>
        <mxCell id="40XM61NViUXHkYQMIeTq-12" value="API X" style="ellipse;whiteSpace=wrap;html=1;fillColor=none;" parent="1" vertex="1">
          <mxGeometry x="640" y="445" width="110" height="55" as="geometry" />
        </mxCell>
        <mxCell id="40XM61NViUXHkYQMIeTq-13" value="API de Experiencia" style="rounded=0;whiteSpace=wrap;html=1;fillColor=#f8cecc;strokeColor=#b85450;fontSize=15;fontStyle=1;align=center;verticalAlign=top;" parent="1" vertex="1">
          <mxGeometry x="90" y="-50" width="670" height="40" as="geometry" />
        </mxCell>
        <mxCell id="40XM61NViUXHkYQMIeTq-14" value="Backend System Axpe&amp;nbsp;" style="text;html=1;strokeColor=none;fillColor=none;align=right;verticalAlign=bottom;whiteSpace=wrap;rounded=0;fontSize=20;fontStyle=1;labelPosition=left;verticalLabelPosition=middle;" parent="1" vertex="1">
          <mxGeometry x="224" y="565" width="190" height="20" as="geometry" />
        </mxCell>
        <mxCell id="40XM61NViUXHkYQMIeTq-44" style="edgeStyle=orthogonalEdgeStyle;rounded=0;orthogonalLoop=1;jettySize=auto;html=1;elbow=vertical;" parent="1" source="40XM61NViUXHkYQMIeTq-15" target="40XM61NViUXHkYQMIeTq-11" edge="1">
          <mxGeometry relative="1" as="geometry" />
        </mxCell>
        <mxCell id="40XM61NViUXHkYQMIeTq-15" value="API 4" style="ellipse;whiteSpace=wrap;html=1;fillColor=#d5e8d4;strokeColor=#82b366;" parent="1" vertex="1">
          <mxGeometry x="500" y="445" width="110" height="55" as="geometry" />
        </mxCell>
        <mxCell id="40XM61NViUXHkYQMIeTq-16" value="API de Sistema" style="rounded=0;whiteSpace=wrap;html=1;fillColor=#d5e8d4;strokeColor=#82b366;fontSize=15;fontStyle=1" parent="1" vertex="1">
          <mxGeometry x="85" y="385" width="670" height="30" as="geometry" />
        </mxCell>
        <mxCell id="40XM61NViUXHkYQMIeTq-31" style="edgeStyle=orthogonalEdgeStyle;rounded=0;orthogonalLoop=1;jettySize=auto;html=1;" parent="1" source="40XM61NViUXHkYQMIeTq-18" target="40XM61NViUXHkYQMIeTq-4" edge="1">
          <mxGeometry relative="1" as="geometry">
            <Array as="points">
              <mxPoint x="420" y="160" />
              <mxPoint x="155" y="160" />
            </Array>
          </mxGeometry>
        </mxCell>
        <mxCell id="40XM61NViUXHkYQMIeTq-32" style="edgeStyle=elbowEdgeStyle;rounded=0;orthogonalLoop=1;jettySize=auto;html=1;entryX=0.5;entryY=0;entryDx=0;entryDy=0;" parent="1" source="40XM61NViUXHkYQMIeTq-18" target="40XM61NViUXHkYQMIeTq-5" edge="1">
          <mxGeometry relative="1" as="geometry" />
        </mxCell>
        <mxCell id="40XM61NViUXHkYQMIeTq-33" style="edgeStyle=elbowEdgeStyle;rounded=0;orthogonalLoop=1;jettySize=auto;html=1;entryX=0.5;entryY=0;entryDx=0;entryDy=0;elbow=vertical;" parent="1" source="40XM61NViUXHkYQMIeTq-18" target="40XM61NViUXHkYQMIeTq-6" edge="1">
          <mxGeometry relative="1" as="geometry">
            <Array as="points">
              <mxPoint x="620" y="170" />
            </Array>
          </mxGeometry>
        </mxCell>
        <mxCell id="40XM61NViUXHkYQMIeTq-18" value="API 1" style="ellipse;whiteSpace=wrap;html=1;fillColor=none;" parent="1" vertex="1">
          <mxGeometry x="350" y="65" width="140" height="80" as="geometry" />
        </mxCell>
        <mxCell id="40XM61NViUXHkYQMIeTq-23" value="AgnÃ³stico a la aplicaciÃ³n&lt;br&gt;" style="text;html=1;resizable=0;autosize=1;align=center;verticalAlign=middle;points=[];fillColor=#f5f5f5;strokeColor=none;rounded=0;fontColor=#333333;" parent="1" vertex="1">
          <mxGeometry x="345" y="20" width="150" height="20" as="geometry" />
        </mxCell>
        <mxCell id="40XM61NViUXHkYQMIeTq-34" value="AgnÃ³stico a la aplicaciÃ³n&lt;br&gt;" style="text;html=1;resizable=0;autosize=1;align=center;verticalAlign=middle;points=[];fillColor=#f5f5f5;strokeColor=none;rounded=0;fontColor=#333333;" parent="1" vertex="1">
          <mxGeometry x="79" y="230" width="150" height="20" as="geometry" />
        </mxCell>
        <mxCell id="40XM61NViUXHkYQMIeTq-35" value="AgnÃ³stico a la aplicaciÃ³n&lt;br&gt;" style="text;html=1;resizable=0;autosize=1;align=center;verticalAlign=middle;points=[];fillColor=#f5f5f5;strokeColor=none;rounded=0;fontColor=#333333;" parent="1" vertex="1">
          <mxGeometry x="590" y="230" width="150" height="20" as="geometry" />
        </mxCell>
        <mxCell id="40XM61NViUXHkYQMIeTq-36" value="AgnÃ³stico a la aplicaciÃ³n&lt;br&gt;" style="text;html=1;resizable=0;autosize=1;align=center;verticalAlign=middle;points=[];fillColor=#f5f5f5;strokeColor=none;rounded=0;fontColor=#333333;" parent="1" vertex="1">
          <mxGeometry x="344" y="230" width="150" height="20" as="geometry" />
        </mxCell>
        <mxCell id="40XM61NViUXHkYQMIeTq-40" style="edgeStyle=orthogonalEdgeStyle;rounded=0;orthogonalLoop=1;jettySize=auto;html=1;elbow=vertical;" parent="1" source="40XM61NViUXHkYQMIeTq-4" target="40XM61NViUXHkYQMIeTq-10" edge="1">
          <mxGeometry relative="1" as="geometry" />
        </mxCell>
        <mxCell id="40XM61NViUXHkYQMIeTq-41" style="edgeStyle=orthogonalEdgeStyle;rounded=0;orthogonalLoop=1;jettySize=auto;html=1;elbow=vertical;" parent="1" source="40XM61NViUXHkYQMIeTq-4" target="40XM61NViUXHkYQMIeTq-9" edge="1">
          <mxGeometry relative="1" as="geometry" />
        </mxCell>
        <mxCell id="40XM61NViUXHkYQMIeTq-42" style="edgeStyle=orthogonalEdgeStyle;rounded=0;orthogonalLoop=1;jettySize=auto;html=1;entryX=0.636;entryY=0.091;entryDx=0;entryDy=0;entryPerimeter=0;elbow=vertical;" parent="1" source="40XM61NViUXHkYQMIeTq-5" target="40XM61NViUXHkYQMIeTq-10" edge="1">
          <mxGeometry relative="1" as="geometry">
            <Array as="points">
              <mxPoint x="422" y="370" />
              <mxPoint x="280" y="370" />
            </Array>
          </mxGeometry>
        </mxCell>
        <mxCell id="40XM61NViUXHkYQMIeTq-45" style="edgeStyle=orthogonalEdgeStyle;rounded=0;orthogonalLoop=1;jettySize=auto;html=1;elbow=vertical;" parent="1" source="40XM61NViUXHkYQMIeTq-6" target="40XM61NViUXHkYQMIeTq-12" edge="1">
          <mxGeometry relative="1" as="geometry" />
        </mxCell>
        <mxCell id="40XM61NViUXHkYQMIeTq-43" style="edgeStyle=orthogonalEdgeStyle;rounded=0;orthogonalLoop=1;jettySize=auto;html=1;entryX=0.5;entryY=0;entryDx=0;entryDy=0;elbow=vertical;" parent="1" source="40XM61NViUXHkYQMIeTq-5" target="40XM61NViUXHkYQMIeTq-15" edge="1">
          <mxGeometry relative="1" as="geometry">
            <Array as="points">
              <mxPoint x="422" y="370" />
              <mxPoint x="555" y="370" />
            </Array>
          </mxGeometry>
        </mxCell>
        <mxCell id="40XM61NViUXHkYQMIeTq-46" value="" style="rounded=0;whiteSpace=wrap;html=1;fillColor=#f5f5f5;strokeColor=#666666;fontColor=#333333;" parent="1" vertex="1">
          <mxGeometry x="440.25" y="500" width="370" height="170" as="geometry" />
        </mxCell>
        <mxCell id="40XM61NViUXHkYQMIeTq-47" value="External Backend System&amp;nbsp;&amp;nbsp;" style="text;html=1;strokeColor=none;fillColor=none;align=right;verticalAlign=bottom;whiteSpace=wrap;rounded=0;fontSize=20;fontStyle=1;labelPosition=left;verticalLabelPosition=middle;" parent="1" vertex="1">
          <mxGeometry x="624.25" y="565" width="190" height="20" as="geometry" />
        </mxCell>
        <mxCell id="40XM61NViUXHkYQMIeTq-49" value="AWS Cloud" style="sketch=0;outlineConnect=0;fontColor=#232F3E;gradientColor=none;strokeColor=#232F3E;fillColor=#ffffff;dashed=0;verticalLabelPosition=bottom;verticalAlign=top;align=center;html=1;fontSize=12;fontStyle=0;aspect=fixed;shape=mxgraph.aws4.resourceIcon;resIcon=mxgraph.aws4.aws_cloud;labelBackgroundColor=#E8E8E8;" parent="1" vertex="1">
          <mxGeometry x="620" y="580" width="60" height="60" as="geometry" />
        </mxCell>
        <mxCell id="40XM61NViUXHkYQMIeTq-50" value="Corporate&#xa;data center" style="sketch=0;outlineConnect=0;fontColor=#232F3E;gradientColor=none;strokeColor=#232F3E;fillColor=#ffffff;dashed=0;verticalLabelPosition=bottom;verticalAlign=top;align=center;html=1;fontSize=12;fontStyle=0;aspect=fixed;shape=mxgraph.aws4.resourceIcon;resIcon=mxgraph.aws4.corporate_data_center;labelBackgroundColor=#E8E8E8;" parent="1" vertex="1">
          <mxGeometry x="284" y="565" width="60" height="60" as="geometry" />
        </mxCell>
        <mxCell id="40XM61NViUXHkYQMIeTq-51" value="Amazon DynamoDB" style="sketch=0;outlineConnect=0;fontColor=#232F3E;gradientColor=none;strokeColor=#ffffff;fillColor=#232F3E;dashed=0;verticalLabelPosition=middle;verticalAlign=bottom;align=center;html=1;whiteSpace=wrap;fontSize=10;fontStyle=1;spacing=3;shape=mxgraph.aws4.productIcon;prIcon=mxgraph.aws4.dynamodb;labelBackgroundColor=#E8E8E8;" parent="1" vertex="1">
          <mxGeometry x="720" y="580" width="70" height="90" as="geometry" />
        </mxCell>
        <mxCell id="hYQtchKP7uzb9fxgcwgy-1" value="Text" style="text;html=1;align=center;verticalAlign=middle;resizable=0;points=[];autosize=1;strokeColor=none;fillColor=none;" vertex="1" parent="1">
          <mxGeometry x="-65" y="-102" width="50" height="30" as="geometry" />
        </mxCell>
      </root>
    </mxGraphModel>
  </diagram>
  <diagram id="JeIrDga33hRKolpU8WWG" name="scheme URL">
    <mxGraphModel dx="1050" dy="509" grid="1" gridSize="10" guides="1" tooltips="1" connect="1" arrows="1" fold="1" page="1" pageScale="1" pageWidth="827" pageHeight="1169" math="0" shadow="0">
      <root>
        <mxCell id="0" />
        <mxCell id="1" parent="0" />
        <mxCell id="acxtUIA-RUqYiqUG4pvp-1" value="&lt;font style=&quot;font-size: 22px;&quot;&gt;&lt;font style=&quot;font-size: 22px;&quot; color=&quot;#ff0000&quot;&gt;http&lt;/font&gt;://&lt;font style=&quot;font-size: 22px;&quot; color=&quot;#3333ff&quot;&gt;example.restapi.axpe.com:8080&lt;/font&gt;&lt;font style=&quot;font-size: 22px;&quot; color=&quot;#00cc00&quot;&gt;/users/v1/users/7846589&lt;/font&gt;&lt;/font&gt;" style="text;html=1;resizable=0;autosize=1;align=center;verticalAlign=middle;points=[];fillColor=none;strokeColor=none;rounded=0;labelBackgroundColor=none;fontStyle=1;fontSize=19;" parent="1" vertex="1">
          <mxGeometry y="90" width="670" height="40" as="geometry" />
        </mxCell>
        <mxCell id="acxtUIA-RUqYiqUG4pvp-3" value="" style="shape=curlyBracket;whiteSpace=wrap;html=1;rounded=1;labelBackgroundColor=#E8E8E8;fontSize=19;rotation=-90;size=0.5;" parent="1" vertex="1">
          <mxGeometry x="21" y="118.38000000000001" width="15" height="40.08" as="geometry" />
        </mxCell>
        <mxCell id="acxtUIA-RUqYiqUG4pvp-5" value="" style="shape=curlyBracket;whiteSpace=wrap;html=1;rounded=1;labelBackgroundColor=#E8E8E8;fontSize=19;rotation=-90;size=0.5;" parent="1" vertex="1">
          <mxGeometry x="198.23000000000002" y="-10" width="15" height="385.8" as="geometry" />
        </mxCell>
        <mxCell id="acxtUIA-RUqYiqUG4pvp-6" value="" style="shape=curlyBracket;whiteSpace=wrap;html=1;rounded=1;labelBackgroundColor=#E8E8E8;fontSize=19;rotation=-90;size=0.5;" parent="1" vertex="1">
          <mxGeometry x="444.74" y="139.19" width="15" height="87.08" as="geometry" />
        </mxCell>
        <mxCell id="acxtUIA-RUqYiqUG4pvp-7" value="" style="shape=curlyBracket;whiteSpace=wrap;html=1;rounded=1;labelBackgroundColor=#E8E8E8;fontSize=19;rotation=-90;size=0.5;" parent="1" vertex="1">
          <mxGeometry x="191.78" y="-7" width="15" height="290" as="geometry" />
        </mxCell>
        <mxCell id="acxtUIA-RUqYiqUG4pvp-8" value="" style="shape=curlyBracket;whiteSpace=wrap;html=1;rounded=1;labelBackgroundColor=#E8E8E8;fontSize=19;rotation=-90;size=0.5;" parent="1" vertex="1">
          <mxGeometry x="366.11" y="113.67" width="15" height="48.87" as="geometry" />
        </mxCell>
        <mxCell id="acxtUIA-RUqYiqUG4pvp-12" value="" style="shape=curlyBracket;whiteSpace=wrap;html=1;rounded=1;labelBackgroundColor=#E8E8E8;fontSize=19;rotation=-90;size=0.5;" parent="1" vertex="1">
          <mxGeometry x="469.32" y="127.62999999999998" width="15" height="22.44" as="geometry" />
        </mxCell>
        <mxCell id="acxtUIA-RUqYiqUG4pvp-13" value="" style="shape=curlyBracket;whiteSpace=wrap;html=1;rounded=1;labelBackgroundColor=#E8E8E8;fontSize=19;rotation=-90;size=0.5;" parent="1" vertex="1">
          <mxGeometry x="421.03" y="110.61999999999999" width="15" height="55.5" as="geometry" />
        </mxCell>
        <mxCell id="acxtUIA-RUqYiqUG4pvp-15" value="" style="shape=curlyBracket;whiteSpace=wrap;html=1;rounded=1;labelBackgroundColor=#E8E8E8;fontSize=19;rotation=-90;size=0.5;" parent="1" vertex="1">
          <mxGeometry x="598.89" y="93.17" width="15" height="90" as="geometry" />
        </mxCell>
        <mxCell id="acxtUIA-RUqYiqUG4pvp-16" value="" style="shape=curlyBracket;whiteSpace=wrap;html=1;rounded=1;labelBackgroundColor=#E8E8E8;fontSize=19;rotation=-90;size=0.5;" parent="1" vertex="1">
          <mxGeometry x="519.1" y="111.89" width="17.2" height="55.15" as="geometry" />
        </mxCell>
        <mxCell id="acxtUIA-RUqYiqUG4pvp-20" value="&lt;font color=&quot;#000000&quot; style=&quot;font-size: 11px;&quot;&gt;Hostname&lt;/font&gt;" style="text;html=1;resizable=0;autosize=1;align=center;verticalAlign=middle;points=[];fillColor=none;strokeColor=none;rounded=0;labelBackgroundColor=none;fontSize=11;fontColor=#00CC00;" parent="1" vertex="1">
          <mxGeometry x="140.5" y="143.69000000000005" width="70" height="20" as="geometry" />
        </mxCell>
        <mxCell id="acxtUIA-RUqYiqUG4pvp-21" value="&lt;font color=&quot;#000000&quot; style=&quot;font-size: 11px;&quot;&gt;Port&lt;br style=&quot;font-size: 11px;&quot;&gt;&lt;/font&gt;" style="text;html=1;resizable=0;autosize=1;align=center;verticalAlign=middle;points=[];fillColor=none;strokeColor=none;rounded=0;labelBackgroundColor=none;fontSize=11;fontColor=#00CC00;" parent="1" vertex="1">
          <mxGeometry x="358" y="142.69000000000005" width="40" height="20" as="geometry" />
        </mxCell>
        <mxCell id="acxtUIA-RUqYiqUG4pvp-22" value="&lt;font color=&quot;#000000&quot; style=&quot;font-size: 11px;&quot;&gt;VersiÃ³n&lt;br style=&quot;font-size: 11px;&quot;&gt;&lt;/font&gt;" style="text;html=1;resizable=0;autosize=1;align=center;verticalAlign=middle;points=[];fillColor=none;strokeColor=none;rounded=0;labelBackgroundColor=none;fontSize=11;fontColor=#00CC00;" parent="1" vertex="1">
          <mxGeometry x="458" y="143.66000000000008" width="50" height="20" as="geometry" />
        </mxCell>
        <mxCell id="acxtUIA-RUqYiqUG4pvp-23" value="&lt;font color=&quot;#000000&quot; style=&quot;font-size: 11px;&quot;&gt;Contexto&lt;br style=&quot;font-size: 11px;&quot;&gt;&lt;/font&gt;" style="text;html=1;resizable=0;autosize=1;align=center;verticalAlign=middle;points=[];fillColor=none;strokeColor=none;rounded=0;labelBackgroundColor=none;fontSize=11;fontColor=#00CC00;" parent="1" vertex="1">
          <mxGeometry x="396" y="143.66000000000008" width="60" height="20" as="geometry" />
        </mxCell>
        <mxCell id="acxtUIA-RUqYiqUG4pvp-24" value="&lt;font color=&quot;#000000&quot; style=&quot;font-size: 11px;&quot;&gt;Resource&lt;br style=&quot;font-size: 11px;&quot;&gt;&lt;/font&gt;" style="text;html=1;resizable=0;autosize=1;align=center;verticalAlign=middle;points=[];fillColor=none;strokeColor=none;rounded=0;labelBackgroundColor=none;fontSize=11;fontColor=#00CC00;" parent="1" vertex="1">
          <mxGeometry x="508" y="144.12000000000006" width="60" height="20" as="geometry" />
        </mxCell>
        <mxCell id="acxtUIA-RUqYiqUG4pvp-25" value="&lt;font color=&quot;#000000&quot; style=&quot;font-size: 11px;&quot;&gt;PathParam&lt;br style=&quot;font-size: 11px;&quot;&gt;&lt;/font&gt;" style="text;html=1;resizable=0;autosize=1;align=center;verticalAlign=middle;points=[];fillColor=none;strokeColor=none;rounded=0;labelBackgroundColor=none;fontSize=11;fontColor=#00CC00;" parent="1" vertex="1">
          <mxGeometry x="578" y="142.69000000000005" width="70" height="20" as="geometry" />
        </mxCell>
        <mxCell id="acxtUIA-RUqYiqUG4pvp-28" value="&lt;font color=&quot;#000000&quot; style=&quot;font-size: 11px;&quot;&gt;Scheme&lt;/font&gt;" style="text;html=1;resizable=0;autosize=1;align=center;verticalAlign=middle;points=[];fillColor=none;strokeColor=none;rounded=0;labelBackgroundColor=none;fontSize=11;fontColor=#00CC00;" parent="1" vertex="1">
          <mxGeometry y="140.54000000000008" width="60" height="20" as="geometry" />
        </mxCell>
        <mxCell id="acxtUIA-RUqYiqUG4pvp-37" value="&lt;font color=&quot;#000000&quot; style=&quot;font-size: 11px;&quot;&gt;Base Path&lt;br style=&quot;font-size: 11px;&quot;&gt;&lt;/font&gt;" style="text;html=1;resizable=0;autosize=1;align=center;verticalAlign=middle;points=[];fillColor=none;strokeColor=none;rounded=0;labelBackgroundColor=none;fontSize=11;fontColor=#00CC00;" parent="1" vertex="1">
          <mxGeometry x="422" y="197.2" width="70" height="20" as="geometry" />
        </mxCell>
        <mxCell id="acxtUIA-RUqYiqUG4pvp-38" value="&lt;font color=&quot;#000000&quot; style=&quot;font-size: 11px;&quot;&gt;Base URI&lt;br style=&quot;font-size: 11px;&quot;&gt;&lt;/font&gt;" style="text;html=1;resizable=0;autosize=1;align=center;verticalAlign=middle;points=[];fillColor=none;strokeColor=none;rounded=0;labelBackgroundColor=none;fontSize=11;fontColor=#00CC00;" parent="1" vertex="1">
          <mxGeometry x="171.02999999999997" y="197.2" width="60" height="20" as="geometry" />
        </mxCell>
        <mxCell id="MCQfmzFn-aFGNGfd5A3U-1" value="" style="shape=curlyBracket;whiteSpace=wrap;html=1;rounded=1;labelBackgroundColor=#E8E8E8;fontSize=19;rotation=-90;size=0.5;" parent="1" vertex="1">
          <mxGeometry x="565.94" y="107.92" width="15" height="148.55" as="geometry" />
        </mxCell>
        <mxCell id="MCQfmzFn-aFGNGfd5A3U-2" value="&lt;font color=&quot;#000000&quot; style=&quot;font-size: 11px&quot;&gt;Path&lt;br style=&quot;font-size: 11px&quot;&gt;&lt;/font&gt;" style="text;html=1;resizable=0;autosize=1;align=center;verticalAlign=middle;points=[];fillColor=none;strokeColor=none;rounded=0;labelBackgroundColor=none;fontSize=11;fontColor=#00CC00;" parent="1" vertex="1">
          <mxGeometry x="543.89" y="197.2" width="40" height="20" as="geometry" />
        </mxCell>
      </root>
    </mxGraphModel>
  </diagram>
  <diagram name="scheme URL queryParam" id="bsXRVIyEN2BgOSmCoMLF">
    <mxGraphModel dx="1877" dy="509" grid="1" gridSize="10" guides="1" tooltips="1" connect="1" arrows="1" fold="1" page="1" pageScale="1" pageWidth="827" pageHeight="1169" math="0" shadow="0">
      <root>
        <mxCell id="DmdGemKdyNGc0-eGiVnZ-0" />
        <mxCell id="DmdGemKdyNGc0-eGiVnZ-1" parent="DmdGemKdyNGc0-eGiVnZ-0" />
        <mxCell id="DmdGemKdyNGc0-eGiVnZ-2" value="&lt;font style=&quot;font-size: 22px;&quot;&gt;&lt;font style=&quot;font-size: 22px;&quot; color=&quot;#ff0000&quot;&gt;http&lt;/font&gt;://&lt;font style=&quot;font-size: 22px;&quot; color=&quot;#3333ff&quot;&gt;example.restapi.axpe.com:8080&lt;/font&gt;&lt;font style=&quot;font-size: 22px;&quot; color=&quot;#00cc00&quot;&gt;/users/v1/users/7846589&lt;/font&gt;?name=Juan&amp;amp;surname=Garcia&lt;/font&gt;" style="text;html=1;resizable=0;autosize=1;align=center;verticalAlign=middle;points=[];fillColor=none;strokeColor=none;rounded=0;labelBackgroundColor=none;fontStyle=1;fontSize=19;" vertex="1" parent="DmdGemKdyNGc0-eGiVnZ-1">
          <mxGeometry x="-119.5" y="150" width="980" height="30" as="geometry" />
        </mxCell>
        <mxCell id="DmdGemKdyNGc0-eGiVnZ-3" value="" style="shape=curlyBracket;whiteSpace=wrap;html=1;rounded=1;labelBackgroundColor=#E8E8E8;fontSize=19;rotation=-90;size=0.5;" vertex="1" parent="DmdGemKdyNGc0-eGiVnZ-1">
          <mxGeometry x="-97" y="171.18" width="15" height="40.08" as="geometry" />
        </mxCell>
        <mxCell id="DmdGemKdyNGc0-eGiVnZ-4" value="" style="shape=curlyBracket;whiteSpace=wrap;html=1;rounded=1;labelBackgroundColor=#E8E8E8;fontSize=19;rotation=-90;size=0.5;" vertex="1" parent="DmdGemKdyNGc0-eGiVnZ-1">
          <mxGeometry x="80.23" y="42.8" width="15" height="385.8" as="geometry" />
        </mxCell>
        <mxCell id="DmdGemKdyNGc0-eGiVnZ-5" value="" style="shape=curlyBracket;whiteSpace=wrap;html=1;rounded=1;labelBackgroundColor=#E8E8E8;fontSize=19;rotation=-90;size=0.5;" vertex="1" parent="DmdGemKdyNGc0-eGiVnZ-1">
          <mxGeometry x="326.74" y="191.99" width="15" height="87.08" as="geometry" />
        </mxCell>
        <mxCell id="DmdGemKdyNGc0-eGiVnZ-6" value="" style="shape=curlyBracket;whiteSpace=wrap;html=1;rounded=1;labelBackgroundColor=#E8E8E8;fontSize=19;rotation=-90;size=0.5;" vertex="1" parent="DmdGemKdyNGc0-eGiVnZ-1">
          <mxGeometry x="73.78" y="45.8" width="15" height="290" as="geometry" />
        </mxCell>
        <mxCell id="DmdGemKdyNGc0-eGiVnZ-7" value="" style="shape=curlyBracket;whiteSpace=wrap;html=1;rounded=1;labelBackgroundColor=#E8E8E8;fontSize=19;rotation=-90;size=0.5;" vertex="1" parent="DmdGemKdyNGc0-eGiVnZ-1">
          <mxGeometry x="248.11" y="166.47" width="15" height="48.87" as="geometry" />
        </mxCell>
        <mxCell id="DmdGemKdyNGc0-eGiVnZ-8" value="" style="shape=curlyBracket;whiteSpace=wrap;html=1;rounded=1;labelBackgroundColor=#E8E8E8;fontSize=19;rotation=-90;size=0.5;" vertex="1" parent="DmdGemKdyNGc0-eGiVnZ-1">
          <mxGeometry x="351.32" y="180.42999999999998" width="15" height="22.44" as="geometry" />
        </mxCell>
        <mxCell id="DmdGemKdyNGc0-eGiVnZ-9" value="" style="shape=curlyBracket;whiteSpace=wrap;html=1;rounded=1;labelBackgroundColor=#E8E8E8;fontSize=19;rotation=-90;size=0.5;" vertex="1" parent="DmdGemKdyNGc0-eGiVnZ-1">
          <mxGeometry x="303.03" y="163.42" width="15" height="55.5" as="geometry" />
        </mxCell>
        <mxCell id="DmdGemKdyNGc0-eGiVnZ-10" value="" style="shape=curlyBracket;whiteSpace=wrap;html=1;rounded=1;labelBackgroundColor=#E8E8E8;fontSize=19;rotation=-90;size=0.5;" vertex="1" parent="DmdGemKdyNGc0-eGiVnZ-1">
          <mxGeometry x="480.89" y="145.97" width="15" height="90" as="geometry" />
        </mxCell>
        <mxCell id="DmdGemKdyNGc0-eGiVnZ-11" value="" style="shape=curlyBracket;whiteSpace=wrap;html=1;rounded=1;labelBackgroundColor=#E8E8E8;fontSize=19;rotation=-90;size=0.5;" vertex="1" parent="DmdGemKdyNGc0-eGiVnZ-1">
          <mxGeometry x="402.2" y="163.59" width="15" height="55.15" as="geometry" />
        </mxCell>
        <mxCell id="DmdGemKdyNGc0-eGiVnZ-12" value="&lt;font color=&quot;#000000&quot; style=&quot;font-size: 11px;&quot;&gt;Hostname&lt;/font&gt;" style="text;html=1;resizable=0;autosize=1;align=center;verticalAlign=middle;points=[];fillColor=none;strokeColor=none;rounded=0;labelBackgroundColor=none;fontSize=11;fontColor=#00CC00;" vertex="1" parent="DmdGemKdyNGc0-eGiVnZ-1">
          <mxGeometry x="22.5" y="196.49000000000007" width="70" height="20" as="geometry" />
        </mxCell>
        <mxCell id="DmdGemKdyNGc0-eGiVnZ-13" value="&lt;font color=&quot;#000000&quot; style=&quot;font-size: 11px;&quot;&gt;Port&lt;br style=&quot;font-size: 11px;&quot;&gt;&lt;/font&gt;" style="text;html=1;resizable=0;autosize=1;align=center;verticalAlign=middle;points=[];fillColor=none;strokeColor=none;rounded=0;labelBackgroundColor=none;fontSize=11;fontColor=#00CC00;" vertex="1" parent="DmdGemKdyNGc0-eGiVnZ-1">
          <mxGeometry x="240" y="195.49000000000007" width="40" height="20" as="geometry" />
        </mxCell>
        <mxCell id="DmdGemKdyNGc0-eGiVnZ-14" value="&lt;font color=&quot;#000000&quot; style=&quot;font-size: 11px;&quot;&gt;VersiÃ³n&lt;br style=&quot;font-size: 11px;&quot;&gt;&lt;/font&gt;" style="text;html=1;resizable=0;autosize=1;align=center;verticalAlign=middle;points=[];fillColor=none;strokeColor=none;rounded=0;labelBackgroundColor=none;fontSize=11;fontColor=#00CC00;" vertex="1" parent="DmdGemKdyNGc0-eGiVnZ-1">
          <mxGeometry x="340" y="196.46000000000006" width="50" height="20" as="geometry" />
        </mxCell>
        <mxCell id="DmdGemKdyNGc0-eGiVnZ-15" value="&lt;font color=&quot;#000000&quot; style=&quot;font-size: 11px;&quot;&gt;Contexto&lt;br style=&quot;font-size: 11px;&quot;&gt;&lt;/font&gt;" style="text;html=1;resizable=0;autosize=1;align=center;verticalAlign=middle;points=[];fillColor=none;strokeColor=none;rounded=0;labelBackgroundColor=none;fontSize=11;fontColor=#00CC00;" vertex="1" parent="DmdGemKdyNGc0-eGiVnZ-1">
          <mxGeometry x="278" y="196.46000000000006" width="60" height="20" as="geometry" />
        </mxCell>
        <mxCell id="DmdGemKdyNGc0-eGiVnZ-16" value="&lt;font color=&quot;#000000&quot; style=&quot;font-size: 11px;&quot;&gt;Resource&lt;br style=&quot;font-size: 11px;&quot;&gt;&lt;/font&gt;" style="text;html=1;resizable=0;autosize=1;align=center;verticalAlign=middle;points=[];fillColor=none;strokeColor=none;rounded=0;labelBackgroundColor=none;fontSize=11;fontColor=#00CC00;" vertex="1" parent="DmdGemKdyNGc0-eGiVnZ-1">
          <mxGeometry x="390" y="196.92000000000007" width="60" height="20" as="geometry" />
        </mxCell>
        <mxCell id="DmdGemKdyNGc0-eGiVnZ-17" value="&lt;font color=&quot;#000000&quot; style=&quot;font-size: 11px;&quot;&gt;PathParam&lt;br style=&quot;font-size: 11px;&quot;&gt;&lt;/font&gt;" style="text;html=1;resizable=0;autosize=1;align=center;verticalAlign=middle;points=[];fillColor=none;strokeColor=none;rounded=0;labelBackgroundColor=none;fontSize=11;fontColor=#00CC00;" vertex="1" parent="DmdGemKdyNGc0-eGiVnZ-1">
          <mxGeometry x="460" y="195.49000000000007" width="70" height="20" as="geometry" />
        </mxCell>
        <mxCell id="DmdGemKdyNGc0-eGiVnZ-18" value="&lt;font color=&quot;#000000&quot; style=&quot;font-size: 11px;&quot;&gt;QueryString&lt;br style=&quot;font-size: 11px;&quot;&gt;&lt;/font&gt;" style="text;html=1;resizable=0;autosize=1;align=center;verticalAlign=middle;points=[];fillColor=none;strokeColor=none;rounded=0;labelBackgroundColor=none;fontSize=11;fontColor=#00CC00;" vertex="1" parent="DmdGemKdyNGc0-eGiVnZ-1">
          <mxGeometry x="650" y="250" width="70" height="20" as="geometry" />
        </mxCell>
        <mxCell id="DmdGemKdyNGc0-eGiVnZ-19" value="&lt;font color=&quot;#000000&quot; style=&quot;font-size: 11px;&quot;&gt;Scheme&lt;/font&gt;" style="text;html=1;resizable=0;autosize=1;align=center;verticalAlign=middle;points=[];fillColor=none;strokeColor=none;rounded=0;labelBackgroundColor=none;fontSize=11;fontColor=#00CC00;" vertex="1" parent="DmdGemKdyNGc0-eGiVnZ-1">
          <mxGeometry x="-118" y="193.3400000000001" width="60" height="20" as="geometry" />
        </mxCell>
        <mxCell id="DmdGemKdyNGc0-eGiVnZ-20" value="" style="shape=curlyBracket;whiteSpace=wrap;html=1;rounded=1;labelBackgroundColor=#E8E8E8;fontSize=19;rotation=-90;size=0.5;" vertex="1" parent="DmdGemKdyNGc0-eGiVnZ-1">
          <mxGeometry x="685.74" y="81.45" width="15" height="307.08" as="geometry" />
        </mxCell>
        <mxCell id="DmdGemKdyNGc0-eGiVnZ-21" value="&lt;font color=&quot;#000000&quot; style=&quot;font-size: 11px;&quot;&gt;Base Path&lt;br style=&quot;font-size: 11px;&quot;&gt;&lt;/font&gt;" style="text;html=1;resizable=0;autosize=1;align=center;verticalAlign=middle;points=[];fillColor=none;strokeColor=none;rounded=0;labelBackgroundColor=none;fontSize=11;fontColor=#00CC00;" vertex="1" parent="DmdGemKdyNGc0-eGiVnZ-1">
          <mxGeometry x="304" y="250" width="70" height="20" as="geometry" />
        </mxCell>
        <mxCell id="DmdGemKdyNGc0-eGiVnZ-22" value="&lt;font color=&quot;#000000&quot; style=&quot;font-size: 11px;&quot;&gt;Base URI&lt;br style=&quot;font-size: 11px;&quot;&gt;&lt;/font&gt;" style="text;html=1;resizable=0;autosize=1;align=center;verticalAlign=middle;points=[];fillColor=none;strokeColor=none;rounded=0;labelBackgroundColor=none;fontSize=11;fontColor=#00CC00;" vertex="1" parent="DmdGemKdyNGc0-eGiVnZ-1">
          <mxGeometry x="53.02999999999997" y="250" width="60" height="20" as="geometry" />
        </mxCell>
        <mxCell id="DmdGemKdyNGc0-eGiVnZ-23" style="edgeStyle=orthogonalEdgeStyle;rounded=0;orthogonalLoop=1;jettySize=auto;html=1;entryX=0.788;entryY=1.2;entryDx=0;entryDy=0;entryPerimeter=0;fontSize=11;fontColor=#000000;elbow=vertical;" edge="1" parent="DmdGemKdyNGc0-eGiVnZ-1" source="DmdGemKdyNGc0-eGiVnZ-25" target="DmdGemKdyNGc0-eGiVnZ-2">
          <mxGeometry relative="1" as="geometry">
            <Array as="points">
              <mxPoint x="653" y="210" />
            </Array>
          </mxGeometry>
        </mxCell>
        <mxCell id="DmdGemKdyNGc0-eGiVnZ-24" style="edgeStyle=orthogonalEdgeStyle;rounded=0;orthogonalLoop=1;jettySize=auto;html=1;fontSize=11;fontColor=#000000;elbow=vertical;" edge="1" parent="DmdGemKdyNGc0-eGiVnZ-1" source="DmdGemKdyNGc0-eGiVnZ-25">
          <mxGeometry relative="1" as="geometry">
            <mxPoint x="830" y="190" as="targetPoint" />
          </mxGeometry>
        </mxCell>
        <mxCell id="DmdGemKdyNGc0-eGiVnZ-25" value="&lt;font color=&quot;#000000&quot; style=&quot;font-size: 11px;&quot;&gt;Argument&lt;br style=&quot;font-size: 11px;&quot;&gt;&lt;/font&gt;" style="text;html=1;resizable=0;autosize=1;align=center;verticalAlign=middle;points=[];fillColor=none;strokeColor=none;rounded=0;labelBackgroundColor=none;fontSize=11;fontColor=#00CC00;" vertex="1" parent="DmdGemKdyNGc0-eGiVnZ-1">
          <mxGeometry x="715" y="201.87000000000006" width="60" height="20" as="geometry" />
        </mxCell>
        <mxCell id="DmdGemKdyNGc0-eGiVnZ-26" style="edgeStyle=orthogonalEdgeStyle;rounded=0;orthogonalLoop=1;jettySize=auto;html=1;fontSize=11;fontColor=#000000;elbow=vertical;exitX=-0.033;exitY=0.387;exitDx=0;exitDy=0;exitPerimeter=0;" edge="1" parent="DmdGemKdyNGc0-eGiVnZ-1" source="DmdGemKdyNGc0-eGiVnZ-28">
          <mxGeometry relative="1" as="geometry">
            <mxPoint x="560" y="174" as="targetPoint" />
            <mxPoint x="590" y="197" as="sourcePoint" />
            <Array as="points">
              <mxPoint x="590" y="204" />
              <mxPoint x="560" y="204" />
            </Array>
          </mxGeometry>
        </mxCell>
        <mxCell id="DmdGemKdyNGc0-eGiVnZ-27" style="edgeStyle=orthogonalEdgeStyle;rounded=0;orthogonalLoop=1;jettySize=auto;html=1;entryX=0.865;entryY=0.967;entryDx=0;entryDy=0;entryPerimeter=0;fontSize=11;fontColor=#000000;elbow=vertical;" edge="1" parent="DmdGemKdyNGc0-eGiVnZ-1" source="DmdGemKdyNGc0-eGiVnZ-28" target="DmdGemKdyNGc0-eGiVnZ-2">
          <mxGeometry relative="1" as="geometry">
            <Array as="points">
              <mxPoint x="728" y="200" />
            </Array>
          </mxGeometry>
        </mxCell>
        <mxCell id="DmdGemKdyNGc0-eGiVnZ-28" value="&lt;font color=&quot;#000000&quot; style=&quot;font-size: 11px;&quot;&gt;key&lt;br style=&quot;font-size: 11px;&quot;&gt;&lt;/font&gt;" style="text;html=1;resizable=0;autosize=1;align=center;verticalAlign=middle;points=[];fillColor=none;strokeColor=none;rounded=0;labelBackgroundColor=none;fontSize=11;fontColor=#00CC00;" vertex="1" parent="DmdGemKdyNGc0-eGiVnZ-1">
          <mxGeometry x="590" y="189.26000000000005" width="30" height="20" as="geometry" />
        </mxCell>
        <mxCell id="DmdGemKdyNGc0-eGiVnZ-29" value="" style="shape=curlyBracket;whiteSpace=wrap;html=1;rounded=1;labelBackgroundColor=#E8E8E8;fontSize=19;rotation=-90;size=0.5;" vertex="1" parent="DmdGemKdyNGc0-eGiVnZ-1">
          <mxGeometry x="447.94" y="160.72" width="15" height="148.55" as="geometry" />
        </mxCell>
        <mxCell id="DmdGemKdyNGc0-eGiVnZ-30" value="&lt;font color=&quot;#000000&quot; style=&quot;font-size: 11px&quot;&gt;Path&lt;br style=&quot;font-size: 11px&quot;&gt;&lt;/font&gt;" style="text;html=1;resizable=0;autosize=1;align=center;verticalAlign=middle;points=[];fillColor=none;strokeColor=none;rounded=0;labelBackgroundColor=none;fontSize=11;fontColor=#00CC00;" vertex="1" parent="DmdGemKdyNGc0-eGiVnZ-1">
          <mxGeometry x="425.89" y="250" width="40" height="20" as="geometry" />
        </mxCell>
      </root>
    </mxGraphModel>
  </diagram>
  <diagram id="DtgzfloAkR0K-iNKyGDK" name="oficina_gobierno">
    <mxGraphModel dx="2249" dy="762" grid="1" gridSize="10" guides="1" tooltips="1" connect="1" arrows="1" fold="1" page="1" pageScale="1" pageWidth="827" pageHeight="1169" math="0" shadow="0">
      <root>
        <mxCell id="9IdNV4OOgOriAVoK4QSL-0" />
        <mxCell id="9IdNV4OOgOriAVoK4QSL-1" parent="9IdNV4OOgOriAVoK4QSL-0" />
        <mxCell id="9IdNV4OOgOriAVoK4QSL-2" value="" style="shape=image;verticalLabelPosition=bottom;labelBackgroundColor=#ffffff;verticalAlign=top;aspect=fixed;imageAspect=0;image=data:image/png,iVBORw0KGgoAAAANSUhEUgAAA/sAAAGlCAYAAAClY+aUAAAAAXNSR0IArs4c6QAAAARnQU1BAACxjwv8YQUAAAAJcEhZcwAADsMAAA7DAcdvqGQAACpzSURBVHhe7d3br1XXfS/wsZ3SSK3l+vStllUj4OUc128VPcJAJSQufwAPwBNPqPBgKYGAItFKlpAqEEh11YK6exrxYqAyD42qowBOUcOtxyit0tYXpd1QQghpmsSum9jxtZz9m3uOzdiLtTZrbWCz1lifjzSz5xhzrnlZWbL4jsucE3emJQAAAKAaT7R/AQAAgEoI+wAAAFAZYR8AAAAqI+wDAABAZYR9AAAAqIywDwAAAJUR9gEAAKAywj4AAABURtgHAACAygj7AAAAUBlhHwAAACoj7AMAAEBlhH0AAACojLAPAAAAlRH2AQAAoDLCPgAAAFRG2AcAAIDKCPsAAABQGWEfAAAAKiPsAwAAQGWEfQAAAKiMsA8AAACVEfYBAACgMsI+AAAAVEbYBwAAgMoI+wAAAFAZYR8AAAAqI+wDAABAZYR9AAAAqIywDwAAAJUR9gEAAKAywj4AAABURtgHAACAygj7AAAAUBlhHwAAACoj7AMAAEBlhH0AAACojLAPAAAAlRH2AQAAoDLCPgAAAFRG2AcAAIDKCPsAAABQGWEfAAAAKiPsAwAAQGWEfQAAAKiMsA8AAACVEfYBAACgMsI+AAAAVEbYBwAAgMoI+wAAAFAZYR8AAAAqI+wDAABAZYR9AAAAqIywDwAAAJUR9gEAAKAywj4AAABURtgHAACAygj7AAAAUBlhHwAAACoj7AMAAEBlhH0AAACojLAPAAAAlRH2AQAAoDLCPgAAAFRG2AcAAIDKCPsAAABQGWEfAAAAKiPsAwAAQGWEfQAAAKiMsA8AAACVEfYBAACgMsI+AAAAVEbYBwAAgMoI+wAAAFAZYR8AAAAqI+wDAABAZYR9AAAAqIywDwAAAJUR9gEAAKAywj4AAABURtgHAACAygj7AAAAUBlhHwAAACoj7AMAAEBlhH0AAACojLAPAAAAlRH2AQAAoDLCPgAAAFRG2AcAAIDKCPsAAABQGWEfAAAAKiPsAwAAQGWEfQAAAKiMsA8AAACVEfYBAACgMsI+AAAAVEbYBwAAgMoI+wAAAFAZYR8AAAAqI+wDAABAZYR9AAAAqIywDwAAAJUR9gEAAKAywj4AAABURtgHAACAygj7AADASHvj7ffaNSCbuDOtXQcAABgpb7z9btr/F++k14+82NYMZv3uy+0aDG6hv7vFoGcfAAAYSTnoA/cS9gEAgJEzG/QNVIauhH0AAGCkzAn6ExNtLVAS9gEAgJEh6EN/hH0AAGAkCPrQP2EfAAAYeoI+DEbYBwAAhpqgD4MT9gEAgKEl6MPCCPsAAMBQEvRh4YR9AABg6Aj68GCEfQAAYKgI+vDghH0AAGBoCPrwcAj7AADAUBiVoD99de3/WsZ7GW4Td6a16wAAAI/Fgwb914+82K4NZv3uy+1a/yJA/eoXv5CW/savzFQwlr645Il06Pd+qy0NH2EfAAB4rB5Gj/5ih/3nn3sqvfLSCzMVMIQM4wcAAB4bc/Th0RD2AQCAx0LQh0dH2AcAABadoE83hw4dSps2bWpLPAhhHwAAWFSCPt1E0L9x40Y6c+ZMW8ODEPYBAIBFI+jTy969e9PRo0fbEg9K2AcAABZF7UE/hp9PTN9XXqJ8/fr1Zr3Trl27miXL+5V14dKlS/fUdztm9IpHXV7K/Tu3xRLmu7b4TFixYsU9n41ryk6dOtXUxd9O+do7PxfH7nY/5RJ1Wb7+8hyxbrj//IR9AADgkRuXHv2TJ09O3+KdZonh6MuWLUvLly+/JwyfO3cubdu2rS2ldPr06bRz58507NixtuaujRs3NvVlAC5FcJ6cnJw9b367ehnK49id2/sxNTU1+5mLFy8297J69ep2a0rHjx9vjh1/S3G/a9asSdeuXZv9/Pbt29utd8U9xTHL7y3Wo6683/gO9u/f35boh7APAAA8UuM+dH/Hjh1zwnAO4WVojrC+Z8+eJtR2NgxE4D548OCc3vAsAnE0BMQ+pRgOXx7/YYjwXt5HnDvOG+c6e/bsnHAe+0Voj8aOrPMaQ27k2LJlS1uTmvX4HmJbFseJUQZ5xAH3J+wDAACPzP/LQT+MQdDfunVrM+Q8lhzqN2/ePCcMnzhxomkAyPJ+EWij97uzlzzEfPY4RtlbH65evdoE4/uJBoF8XQsJzNHQEKG8bECIML5hw4ZmPbaV4TyudeXKlW2pt/Pnz6e1a9e2pbvWrVvXPKyvFD37+/bta0vcj7APAAA8Mv/7f/16ev3Ii498GRblcPQcjCPERyCPYB5iCH80AGRl+I9e7c5e8iyOfeDAgbbUXQ70ZWNDKIfxR8PBIOI4cc2dD8+L0Qh5KkL8jfKjFN9n3Ife/f4I+wAAAI9Y7rGP4BzD0cvh7dHrHj3WOaSHspc8i4aAGApfbnv22WebxoEsB/qY8/6wdA7fD3EfMR8/tsU15/n5uYEhzp8bN+YT38OFCxfa0l29evxjqkN8Vzdv3mxr6EXYBwAAeMRyj330zJcPqotwHME4h/RYoge/Vy95hO5yKHv0dseogWhAeBRi+H48L6Bz/v+VK1fmjBaIJcoxSiHEfcaUhlK3p+fHiIBo7MiNBCF67uO7KufxZ9E4ENdjOP/9CfsAAAAPSTlnvzOARxjuDLGd8/dDbC97yUs53Jfiqf8xdz6fN5b4fBnQyzn7sZTTBHrVh85RB7FEGC+H8Gc5uIe4hwjl5ee6PU0/rjGe8p9HCMQSx47Gg14GnYYwriamv8T+37sAAABQkfW7L7dr/YsA9fxzT6VXXnphpgKGkJ59AAAAqIywDwAAAJUR9gEAAKAywj4AAABURtgHAACAygj7AAAAUBlhHwAAACoj7AMAAEBlhH0AAB6aN95+r10D4HGauDOtXQcAgAV74+130/6/eCe9fuTFtmYw63dfbtdgcIv5u4sA9fxzT6VXXnphpgKGkJ59AAAeWA76AAwHYR8AgAcyG/QNGAUYGsI+AAALNifoT0y0tQA8bsI+AAALIugDDC9hHwCAgQn6AMNN2AcAYCCCPsDwE/YBAOiboA8wGoR9AAD6IugDjA5hHwCA+xL0AUaLsA8AwLwEfYDRI+wDANCToA8wmoR9AAC6EvQBRpewDwDAPUYl6E9fXfu/lvFegE4Td6a16wAA8MBB//UjL7Zrg1m/+3K71r/4h+yvfvELaelv/MpMBWPpi0ueSId+77fa0mAW+rt7/rmn0isvvTBTAUNI2AcAYNbD6NFf7LAvdPEg/O6olWH8AAA0zNEHqIewDwCAoA9QGWEfAGDMCfp3HTp0KK1YsaItAYwuYR8AYIwJ+ndF0D9//nyamppqawBGl7APADCmBP259u7dm86cOdOWAEabsA8AMIZqD/q7du2avq2JdOrUqbbmrs5t8TfK5fKtb33rnrq8XL9+vRkFUNbFMbM43qZNm9rSjJga0G3fkM/fea2XLl2a/YypBcCghH0AgDEzLj36GzduTMePH29Ldx07dqzZVopyvJE6L7/7u787u37w4MG0c+fO2fKyZcuaz5R1586duyesZxHWd+zYMbtviCCfxTXGsTqvdfv27enixYvNZw4cONDz+ADdCPsAAGNknIbur1u3rpl/Xwbr6JGP8P6wbdiwId28ebMt3RUBPRoSYopAdvTo0bR69epmPUYJxDVG3dmzZ5tydu3atXYtpS1btjQLQL+EfQCAMfHGO+/NBP1QedDPokf9xIkTbSmlycnJtHnz5rZ0VwTtPGS+c5h9P2K0wKpVq9rSXRcuXGgaHXo5ffp001AQonc/ytnJkyfTmjVrDOEHFmTiTh5LBAAAj9H63Zfbtf7FP2Sff+6p9MpLL8xUtCKwL126tAn2y5cvb4bCRy97DJWPh/DFnPoYJh+95WV9NzEa4MaNG03vexZ1+/bta0upGW6fe+vL4+XrKHv2SxHkY9/4bIxAiGvqfBtAHG/r1q3NiIRex2HhHubvDoaJnn0AAKoV8+tjGH2E8wjV+/fvb7c8uDxnP3rgI6R3E0E/XufXTYT7GKofvfcxoiD+RrmcdhCiQSIaE2JUAkC/hH0AAKoWAT964aPHPPe+P0x5Ln30wHeKnviYIlBui4aHCPRXrlyZ85C/WKIc0w5i7n75RP/Y13B+YBDCPgAAVYuAH0P5Y/5+L+Wc/Vg6e9fvJ56W32vUQPTWxzD8fOyYEhDXFD3127Zta/eaEeWY/x8jEmLJn4nGil7TDAC6MWcfAIChYO40j4PfHbXSsw8AAACVEfYBAACgMsI+AAAAVEbYBwAAgMoI+wAAAFAZYR8AAAAqI+wDAABAZYR9AAAAqIywDwAV+/Z332vXAIBxMnFnWrsOAFTk7956N/3B195Jrx95sa3p3/rdl9s1GNxCfnNhIb+7+Ifs8889lV556YWZChiQ3x210rMPABX61nd+kl4+/k5bAgDGjbAPAJX55t//OB088a/p88/bCgBg7Aj7AFCRb7zxo/RHp6fSp5//d0oTbSUAMHaEfQCoxNcv/TAd/avr6eNPpoM+ADDWhH0AqMCr37yVvvaNm+kjQR8AmCbsA8CIO37me+n03/4gffjRZ20NADDuhH0AGGF//tc30tcv/Xv6+S8EfYDFEo9E+eUlHozCcPOefQAYUcf+6kb65j/8R/qvDz5ta7rznn0Wm/fsAzx+evYBYAS9cnoq/U0fQR8AGE/CPgCMmCN/OZUuv/luel/QBwB6EPYBYIT84av/ki7880/Tez8T9AGA3oR9ABgRv/+1t9Plt36aPvQwPgDgPoR9ABgBX518O31n6v308cfD+x79mSf+xv9axnsBYBh4Gj8ADLHPPr+TvnLszXT99gfpw48/b2sHs1hP449/UPzqF7+Qlv7Gr8xUMJa+uOSJdOj3fqstDcbT+AEeHmEfAIbUL6bD/VeOvZW+/+MP04cfLSzoh8UM+0IXD8LvDuDhMYwfAIZQPGn/S3/6Zvq3H37wQEEfABhPwj4ADJmfvP9J2j0d9L//ow/TJ58N7xx9AGB4CfsAMER++NOP0pf+5J+m//5C0AcAFkzYB4Ah8b0ffZi+fPTN9N7PP5sO+h6pAwAsnLAPAENg6gcfND36P/vg0/TxJ+boAwAPRtgHgMfsne/9LH15Ouh/+llKH39a39D9U6dOpYmJidll06ZN7ZaUdu3aNWfboUOH2i0zOj+7YsWKdstd8ZlynyzOU9bn83YeM5ZLly4120JsL68x79NN57b4XHw+dF5X3u/69evNenmOEHWxrfO685K/m/z5com6brpdQ7nv/a4RgNEl7APAY/SPU++nPUffTHfSRPqo4h79jRs3pnjbb37jbw6u4eDBg7Pb9u3bNxu8IzRv3bo1Xbt2bXb7hg0b5gT+aCyYnJyc3X7x4sWmLjt58uTstjNnzrS1c68nPrNmzZo5gb9T7J9DfBblqJ/Pzp07Z88TS7Z8+fI0NTXV9ZxxnbFv3HfIn927d28TwuOz5X3FetT1CvzlNXTbt9c1AjDahH0AeEy+/d3/TPv+7M3mQXw1B/1O69atSzdu3GhLc0V4vnXrVrN+/PjxJpwuW7asKYejR482ITiH5GPHjqVz584162H16tXNPoOIz0SDw4EDB9qae23fvj3t37+/Lc2Icmddv+Ie4nxx3EGcPn26Cedbtmxpa1KzHt9bbLuf2Dc+f/jw4bYGgFoJ+wDwGFx569301cm30udj+MD96IlfunRpW7orepvPnj2bVq5c2ZTL9VJuEIjAH73UZWNApxgZkIenz9dzv2rVqqanvZd8HfkY8TdGGDzzzDNNuZdojMjnL0czhBzYO0cMzOf8+fNp7dq1bemu+RpQOsXny579+a4RgNEl7APAY7Dq+V9Prx95cVGWYRDBPQfKGIofQ9KzGLof9RHco8d7vvA+qHK4e/TgP4gdO3akEydONOv99sqXQ+TLe85i9MJCRwc8LPe7RgBGk7APADxy0RufA2XnMPs8Zz/+lvPtI/xfvXq1Ld2Ve/yjVz0aB3rNVR/ElStXuj78r7R58+amFzx69WMUQDmUfqGiASLO22+PejSEXLhwoS3d1avHv5v4/MNsUAFgOAn7AMBQiF7lCPJ5qHz0pMcw/FI8qT4aDiKsxhK90mUDQQT/styPOF+MLrhfD3s+XzzML67tYYnGjzh/P7Zt2zbb4JBFQ0F8b/00PsSUgfj8nj172hoAaiXsAwBDo3xQXoT/KOfh/7FE4C6fqp9HCeTtMRqgHDlQztkve+7LaQUR3mOEQD/D/CNsh+jl70c5Hz6WbqMQciNCP+Ia89sD8jHz2wh6Ka8hvo/YN86ZzXeNveoBGH4T0//B944VAGCO9bsvt2v9i39QPP/cU+mVl16YqYAB+d0BPDx69gEAAKAywj4AAABURtgHAACAygj7AAAAUBlhHwAAACoj7AMAj1S82z1e3dbt/fe9tuX6+FuK/fKr4GKJd8yX4v3z5fbyffT5mHkpX8XXKd7nP9++ndujXIrrKrd37tdZ3/lauyhHfef30nl/3T7b67sLcbzyO8vnme94AIwmYR8AeOQ2btzYvM+90/Hjx5ttnaI+3j0ffzvFu/fjzcGx7Nu3bzbQR7jN78zP27dv3z67Ld4xX27bsGHDvIH/5MmT8+5bbi/f/R/27t07uy3e/R/vxu/cL19LHCeOXzp9+nRz/92+szhePnZ8F4cPH263zJjvuytFqI9jlfcR61En8AOMPmEfAFgUEUDLXuUc0tetW9f8zSJoTk1NpaNHj6azZ8/OGzyjoeDWrVvNeoTbCKvLli1ryiGOE7pti+NH4C57/3uJfUO33vIHtXLlyuY6SpOTk2nPnj3N/c13zhs3bqSlS5e2pcG+u9ygsGXLlrYmNetxztgGwGgT9gEWybe/+167BuNp27ZtTYjNTpw4MdvzXoqgmXu6I4z2Cp4RZCPQRlgO5XqnXtvKxoL7iWu6efNmW0rNSIE89L2fBoNe4v7K0Q35WNEwEd9PZw99NAzk80bP/+bNm9st/X934fz582nt2rVt6a5ofIlGBABG28SdGLMFwCP1d2+9m/7ga++k14+82NYMZv3uy+0aDGYxf3PxD4rnn3sqvfLSCzMVreiZjsAaQ9hjKHysP/PMM7PD0aO3P8Jl7j3P+6xevboJvhF4cw99zDkvh7ZH8M299RF+y3Kp17aYQx/HL3u3Q7f6OHf0oscQ/V6f66a8nyyuJ4ugXw7vL88Tymvv/D6iHFMX8j/n5vvuQj/30Pn/x2J6mL87gHGnZx/gEfvWd36SXj7+TluC8bZjx4504MCBpsc55pt3ioAawTYCbITcPAc/6rM8Zz/+RnjNovHg6tWrbWmuXtvmGw3Q6dy5c+k3f/M329KDi/uK+4gwXg7Vj8aMeBZB3H9uFOjVQ58bEGKUQz/fXSkaDy5cuNCW7urV4w/AaBH2AR6hb/79j9PBE/+aPv+8rYAxFz3KEbAjzJbDz7MrV640w88jBOclyjHkv1M+Vg6z0YgQQ+tL+en30cjQbVv0qncbCdApNyr005M/qLju/fv3N+txL3nEQ17iWQPl9IdSvve4h36+u2gUyA0WMa0iGhbKxoDo1Y/v9FHcJwCLS9gHeES+8caP0h+dnkqffv7fKd0dsQtjLwJor5AdoTZCaCmH0m6idz/CcoiAGuXcIx5LDtHRMNC5Lc7f+RT9UjknPz/4rlRu73xS/yBysI7e/Qjm0TBRiu1lD32s5/NG73086T/M991FiI/9yyAfowLis3kkQCxxjGgkAGD0mbMP8Ah8/dIP0//5vzfSR59MB/2COfsstmGYsw/98rsDeHj07AM8ZK9+81b62jdu3hP0AQBgsQj7AA/R8TPfS6f/9gfpw48+a2sAAGDxCfsAD8mf//WN9PVL/55+/gtBH2CxxCNRfnmJB6MAdDJnH+AhOPZXN9I3/+E/0n998Glb0505+yw2c/YBYDzp2Qd4QK+cnkp/00fQBwCAxSLsAzyAI385lS6/+W56X9AHAGCICPsAC/SHr/5LuvDPP03v/UzQBwBguAj7AAvw+197O11+66fpQw/jAwBgCAn7AAP66uTb6TtT76ePPx6B9+jHE9Ms47sAAGPL0/gB+vTZ53fSV469ma7f/iB9+PHnbe1gFvtp/E9MTKRfe3JJW2LcLPmlifTq/t9uS4PxNH4AGG3CPkAffjEd7r9y7K30/R9/mD78aGFBPyx22H96Oui/9vLKtgT9E/YBYLQZxg9wH/Gk/S/96Zvp3374wQMFfQAAWCzCPsA8fvL+J2n3dND//o8+TJ98NgJz9AEAYJqwD9DDD3/6UfrSn/zT9N9fCPoAAIwUYR+gi+/96MP05aNvpvd+/tl00PdoEwAARouwD9Bh6gcfND36P/vg0/TxJ+boAwAweoR9gMI73/tZ+vJ00P/0s5Q+/rS+ofuXLl1KExMTc5aoyzZt2jRn26FDh9otKV2/fr2p6xR1sS3s2rVr9jOd51qxYkVTn506dWre7b3E8cvPxTlL3e6xFPcY5y7N972U5+s8V4jtccwsf0/5OwEAeByEfYDWP069n/YcfTPdSRPpo4p79JcvX57irat5Wb16dVOfA2u5bd++fXMC/6DKc23YsGE2LEfY3rp1a7p27dqc7f0G/p07d85+7ty5c7PhPQL6mjVr0sWLF2e3Hzx4sAnf99Pte4nAHt9BrgudIX7v3r3p7Nmzs40Dhw8fbq5v2bJlTRkA4HEQ9gGmffu7/5n2/dmbzYP4ag76vUSAjcB65syZtmbGyZMn0+TkZFt6MGvXrp0NysePH2+OXQbio0ePNuE/h+Z+RSPBzZs3m/UTJ0404T43YIQI4xHkO3vz+3H79u12bUZcY7cQH+c8cOBAc3/Hjh1r9gMAeJyEfWDsXXnr3fTVybfS52PywP0I1HlYeu7Nv3r1atq4cWOzXlq5cmWz/8MQAT8H5WhYiGN3imu4detWW+pPhOtVq1Y169HLn9dLZYNAL92+l2g0iF76qOs2hD/LvfvRqx/BHwDgcRP2gbG36vlfT68feXFRlmFQDlfv7Ml/2MoAHR5Wj3cE/HzcGLJf9uQvVK/vJa45D+GP8/UaeRAhP64rgj8AwOMm7AOQnn322aZnulPZ45975TvnrM+nV4CO+jh2p149/p3ynP2YCrB9+/a2NjVz/q9cudKW7urV4z+ICP0R6GOqQDdx/LgvAIBhIOwD0PSMR1Ath6pHqI+H6JVhOoJ/DFXP4uF9UTfow+h27NjRHLsUQ+cHPdaWLVuav3k+flxrPFCvbJDI97SQ3v84bvmAwvPnz6elS5e2JQCA4SXsA4yZcmh9LDkoT01NNT3guT73Usdc+yx658t94uF9C5kKEEPdo5c8HyeWCPnlsSL89/MmgHgw3v79+5v1CP/R2x/Xno8bwT/urRQNDXl7Pke37yWOF/eY64Jh+gDAKJi4kyciAjC01u++3K4N5uknl6TXXr7/sPj5RBjOr59bTDEkPxoaHsZ8fAa3kN9c/EKef+6p9MpLL8xUAACPjZ59AOYVPdmLHfSjgSGG+gv6AAALI+wDMHSigcFweQCAhRP2AQAAoDLCPgAAAFRG2AcAAIDKCPsAY+TSpUtzXi8XT7zP4hV15bZY8mv54oF5ua58F3+sl/t3viovXp/Xa3u+ls53+0dd1uu8WdTHOUrd7iPOlUU5v4c/jtl5zZ3XEN9ReazO82XdtnW7lvJ83bbn7zz+5rpe5wQA6EXYBxgz8Q76eLp+LBs2bLgnROdtscR75iOQ5lfvxRJyWA7xvvy8LfbLwToH1Lwtby/D7saNG9OxY8fmHC+733kjDO/cuTOdPXu26+fz5+K9+/Eu/gdx8eLFOdfRGb77vZZYOr+DUG6P7zxs3bq1efd/1K1bt25OgwUAwP0I+wBjbO3atV3Daen27dvt2oyjR4+mZcuWtaW5IrzfunWrOWYE3zNnzrRbZkTwnpycbEspTU1NNY0F3Xrt73feeAf/tm3bmpB9+vTptvZeN2/e7Hm9CxH3FPdWhu9+ryVEw0EE/vl0/n8SbybwGkIAYBDCPmPpjbffa9dgvEVIjV7jUh46nof4R8iMEBt13UJ5lgP+s88+m65evdoE/04rV65seqtLEWQ7w3OY77z5XLFPhOyyASHL9xHBOvZ5mHKjRujnWko5tJeBPl9r/s6jcSIaQWIUhiH8AMBCTNyJ8YEwRt54+920/y/eSa8febGtGcz63ZfbNRjcYv/unn5ySXrt5ZVtaWae/Jo1a9rSzBD8/D77CJ95iH8vEbpj2H30TkdozeUseu5jGHoMa4+GhM6e/fIccS3bt29vevfz/tF73+0aOs8bw+Bv3LjR7B8iJMfnY1vnfeRyNDJEiI5QndfjuEuXLp3zTv/Oz5fHziKAx7XHvQ5yLVm+htBteymOHw0W+btdLAv5zcVdPP/cU+mVl16YqQAAHhs9+4yVHPRhnOVwGWEzQmQE0n5FoI0GghMnTrQ1c+fs5zAavfvR292pV49/fC5Cf68h8J3njd7zCP+5RzzupbymUoT6uOfOaQEPIo9gCINcS8gjGPqdWhANERH0owEBAKBfwj5jYzboz9ODBuMkwmYMkz98+HBb0130upcPlDt//nzTGz6f6NWOgF0Ov49GhXjoXPSIdxNhtpzL3uu8cZwI1LmBIZbo8S9HGJTy/s8880xb82CiVz8aLHLP/SDXEmJkRTRczCcaBMrv7sKFC303DgAABGGfsTAn6E/cfaUWjLs9e/Y0wbTs3c891LFE2I5e9+i9znWhHPbeS/TUnzt3bvZzEf4jCPcaih7huez173Xe6P2PRopSblyIBoKsPG/0jPcKy9HAkPctA3YpAnreJ46TpycMei2xxLV0fn/l9vjOc0NCrovvMU8TAADohzn7VK9X0Ddnn8fhcc/Zh36Zsw8Ao03PPlXTow8AAIwjYZ9qCfoAAMC4EvapkqAPsPjiv7a/vMR/cwFgGJizT3X6Dfrm7PM4mLMPAMBi0LNPVfToAwAACPtURNAHAACYIexTBUEfAADgLmGfkSfoAwAAzCXsM9JGKuhPX6JlzBcAAFgknsbPyHrQoL/YT0V/Yvoaf+3JJW2JcbTklybSq/t/uy0NxtP4AQAYhLDPSHoYPfpegcYo8bsDAGAQhvEzcszRBwAAmJ+wz0gR9AEAAO5P2GdkCPqUTp06lVasWNGWAACAkrDPSBD0KUXQP378eJqammprAACAkrDP0BP06bRly5Z05syZtgQAAHQS9hlqtQf9iel76hyKHuVLly61pZQOHTrU7JeXTZs2tVtmxP7l9vKzsW9nXdZrW67vFHXXr19vSzOihz1fT/5cucT2LM4TdXE/neK43T5XHj8r94ulvP7YP+rKc8R2w/0BABg3wj5Da1x69COIlqG4FKF1375901/BndkldAbgixcvNtvi75o1a9raGRs3bkwnTpxoSzMiXMcQ+OXLl7c1M3J9fKbXNfUSPe35Gq9du9bURQ98Ftewc+fONDk52dbMiDAe15HvIZb9+/e3W+eKIH/w4MHZ/fL9loE/rj2+MwAAGGfCPkNpnIbub9++PW3durUtzRXBOAJt6ejRo+ns2bP39LKH1atXN3/LbXH8Y8eOzak7fPhwOnDgQFu66/Tp02nHjh3NZ2JO/EJt2LAhnTx5si3NiGuIaw9lOI9GgAjw+dpDt7n40fgQQX7v3r1tzcz9RgNCZ2NG1O3atastAQDA+BH2GTpvvPPeTNAPlQf9sHLlyibEdg5vj3AePeRlCA7Lli1resJv377d1twVgTi2xT6lCL8R5LMI3mWvexaNC6tWrWq29WpQuJ+4jxitUB4/B/UQjQllOD937lxzzvu5cOFCWrduXVu6a+3atfdc5549e+5p4AAAgHEi7DN0fud//o/0+pEXH/kyTKLH+0GGnsdQ9hjiHsPfu/WKb9u2bXb4fITxCP+dcm97blzobCDoR4TruI/Oh+fFKIEYLRA2b97cBPFHKRo7YrRAjGAAAIBxJOzDEIhw2jn0PPfOl0PeQ7ce/zzfPXrUO0cIhLxv9LBH6I+e707R2x7HzQ++i0DeOb/+froN34/rjVECMVUhjpufE5CfCRDXfOXKlWZ9PkuXLk3nz59vS3f16vGP4f5xD/0cGwAAaiPsw5CI3v0Ip/nhdiEaAHKPeBaBulvPfIie/V4jBGKOfgTuCNedw/xDDKcvH5IXS1xLZ2NDL9HIENfWOT3g6tWrzRD+8rjR656fCZCvuRxy3/kAwhAjAqLRIDcShFiP7yy2dRMNDx7WBwDAOBL2YYhECC5FA0AE6NzbHkvMec8PuusUPfjd5v+HHMI7Gw9C5xD+LBoVyvn10Sufr6OzESBGAUTwLq81RiqUQ/izHNwj4Mc5I5SXx+52jdFAEY0PeYRALLEejQfdGi9C3HMeSQAAAONkYvofyjPv8gL6sn735XZtME8/uSS99vLKtgSD8bsDAGAQevYBAACgMsI+AAAAVEbYBwAAgMoI+wAAAFAZYR8AAAAqI+wDAABAZYR9AAAAqIywDwAAAJUR9gEAAKAyE3emtesjZ/3uy+0aDO71Iy+2a4NZ6O/u6SeXpNdeXtmWYDB+dwAADELPPgAAAFRG2AcAAIDKCPsAAABQGWEfAAAAKiPsAwAAQGWEfQAAAKiMsA8AAACVEfYBKrbkCxPtGgAA42TizrR2feSs3325XYPBvX7kxXZtMAv93T395JL02ssr2xIAAMCjo2cfAAAAKiPsAwAAQGWEfQAAAKjMeIb9eEqBZbwXAACAio3lA/qemJhIv/bkkrbEOFrySxPp1f2/3ZYG4wF9AADAsBvLsC908SD87gAAgGFnzj4AAABURtgHAACAygj7AAAAUBlhHwAAACoj7AMAAEBlhP3Crl270sTERLOsWLGirU3N+qVLl9rSXPkz169fb2tmbNq0afZYsZw6dardMvOZQ4cONetRX+4XS7dzxf7dtpXXnBcAAADGm7DfinAegT3eRBjLgQMHZgP5fI4dO5Z27tyZTp8+3dbcdfLkyeZY165dS1u3br2nQSDbuHHj7HkvXryY1qxZc0+on5ycbM5z4sSJtuaugwcPzn4+1gV+AACA8SbsT4sQfvbs2XTmzJm2JqUtW7akvXv3tqXuolc+Avi2bduaMN7LsmXL0vLly9Pt27fbmt5Wr17dBPZobMgi+Mfogj179jSNC/OJa47Gg34aKgAAAKiTsD/t6tWrTUAe1PHjx9PatWubgB56DfWP+ujdz/vdz6pVq9LU1FRbSk1v/rp165pGg7jOckpAN7HvjRs32hIAAADjRthfoDwaIEYAhB07dtwzxD6G7seQ+hiWH0PsFyp68zdv3tysb9++vWlkAAAAgF6E/WnPPvtsE9wHkefo54fi7du3754h9nnOfgz1jwfp9evKlSuzDwjMvfgxDSDOEw0Ica295v+H8+fPp6VLl7YlAAAAxo2wPy2G18fw+DKQx9D7+ea9R6DOYT4vEci7DbHPc+3nC+hZnDcaDvbv39+UL1y4MOcBfLHEtXZ7IGCIa47GgPs9bwAAAIB6CfuteDjfuXPnZnvqY7h8GZhjKH7e9sd//MdzhvBnMZS/2xD7mGsfvfuHDx9ua+aKY+Vjx3nK+f3lEP4srq18IGA0DuTPR300CAAAADC+JqaD4cgmw/W7L7drg3n6ySXptZdXtiUYjN8dAAAw7PTsAwAAQGWEfQAAAKiMsA8AAACVEfYBAACgMsI+AAAAVEbYBwAAgMoI+wAAAFAZYR8AAAAqI+wDAABAZYR9AAAAqIywDwAAAJUR9gEAAKAywj4AAABURtgHAACAygj7AAAAUBlhHwAAACoj7AMAAEBlhH1YJEu+MNGuAQAAPFoTd6a16yNn/e7L7dpgnn5ySXrt5ZVtCQAAAOqiZx8AAAAqI+wDAABAZYR9AAAAqIywDwAAAJUR9gEAAKAywj4AAABURtgHAACAygj7AAAAUBlhHwAAACoj7AMAAEBlhH0AAACojLAPAAAAlRH2AQAAoDLCPgAAAFRG2AcAAIDKCPsAAABQGWEfAAAAKiPsAwAAQGWEfQAAAKiMsA8AAACVEfYBAACgMsI+AAAAVEbYBwAAgMoI+wAAAFAZYR8AAAAqI+wDAABAZYR9AAAAqIywDwAAAJUR9gEAAKAywj4AAABURtgHAACAygj7AAAAUBlhHwAAACoj7AMAAEBlhH0AAACojLAPAAAAlRH2AQAAoDJjGfaXfGGiXQMAAID6TNyZ1q4DAAAAFTCMHwAAACoj7AMAAEBlhH0AAACojLAPAAAAlRH2AQAAoDLCPgAAAFRG2AcAAIDKCPsAAABQGWEfAAAAKiPsAwAAQGWEfQAAAKiMsA8AAACVEfYBAACgMsI+AAAAVEbYBwAAgMoI+wAAAFAZYR8AAAAqI+wDAABAZYR9AAAAqIywDwAAAJUR9gEAAKAywj4AAABURtgHAACAygj7AAAAUBlhHwAAACoj7AMAAEBlhH0AAACojLAPAAAAlRH2AQAAoDLCPgAAAFRG2AcAAICqpPT/ARRwOidvx3oRAAAAAElFTkSuQmCC;" parent="9IdNV4OOgOriAVoK4QSL-1" vertex="1">
          <mxGeometry x="-40" y="50" width="759" height="313.58" as="geometry" />
        </mxCell>
      </root>
    </mxGraphModel>
  </diagram>
  <diagram id="oBadCE31I0kwPmTTEZeO" name="api-management-composicion">
    <mxGraphModel dx="1789" dy="457" grid="1" gridSize="10" guides="1" tooltips="1" connect="1" arrows="1" fold="1" page="1" pageScale="1" pageWidth="827" pageHeight="1169" math="0" shadow="0">
      <root>
        <mxCell id="0" />
        <mxCell id="1" parent="0" />
        <mxCell id="oUci_EhVsHcZqZf8ohFG-4" value="" style="whiteSpace=wrap;html=1;fillColor=none;" parent="1" vertex="1">
          <mxGeometry x="915" y="170" width="146" height="190" as="geometry" />
        </mxCell>
        <mxCell id="_OwsMBPYl4VA8BwLDQy6-30" value="" style="rounded=1;whiteSpace=wrap;html=1;labelBackgroundColor=default;labelBorderColor=none;fillColor=#d5e8d4;strokeColor=#82b366;" parent="1" vertex="1">
          <mxGeometry x="394" y="210" width="280" height="520" as="geometry" />
        </mxCell>
        <mxCell id="_OwsMBPYl4VA8BwLDQy6-46" style="edgeStyle=none;rounded=1;orthogonalLoop=1;jettySize=auto;html=1;dashed=1;fontSize=12;fontColor=#CC99FF;endArrow=classic;endFill=1;" parent="1" source="_OwsMBPYl4VA8BwLDQy6-3" target="_OwsMBPYl4VA8BwLDQy6-22" edge="1">
          <mxGeometry relative="1" as="geometry" />
        </mxCell>
        <mxCell id="_OwsMBPYl4VA8BwLDQy6-47" style="edgeStyle=none;rounded=1;orthogonalLoop=1;jettySize=auto;html=1;dashed=1;fontSize=12;fontColor=#CC99FF;endArrow=classic;endFill=1;" parent="1" source="_OwsMBPYl4VA8BwLDQy6-3" target="_OwsMBPYl4VA8BwLDQy6-16" edge="1">
          <mxGeometry relative="1" as="geometry" />
        </mxCell>
        <mxCell id="_OwsMBPYl4VA8BwLDQy6-3" value="&lt;br&gt;Developers/Desinger" style="outlineConnect=0;strokeColor=#b85450;fillColor=#f8cecc;dashed=0;verticalLabelPosition=bottom;verticalAlign=top;align=center;html=1;fontSize=12;fontStyle=0;aspect=fixed;shape=mxgraph.aws4.illustration_users;pointerEvents=1;rounded=1;" parent="1" vertex="1">
          <mxGeometry x="70" y="510" width="100" height="100" as="geometry" />
        </mxCell>
        <mxCell id="_OwsMBPYl4VA8BwLDQy6-43" style="rounded=1;orthogonalLoop=1;jettySize=auto;html=1;fontSize=12;fontColor=#CC99FF;endArrow=classic;dashed=1;endFill=1;" parent="1" target="_OwsMBPYl4VA8BwLDQy6-26" edge="1">
          <mxGeometry relative="1" as="geometry">
            <mxPoint x="200" y="270" as="sourcePoint" />
            <mxPoint x="420" y="270" as="targetPoint" />
          </mxGeometry>
        </mxCell>
        <mxCell id="_OwsMBPYl4VA8BwLDQy6-7" value="&lt;br&gt;Aplications&lt;br&gt;" style="outlineConnect=0;dashed=0;verticalLabelPosition=bottom;verticalAlign=top;align=center;html=1;fontSize=12;fontStyle=0;aspect=fixed;shape=mxgraph.aws4.illustration_devices;pointerEvents=1;rounded=1;fillColor=#000000;fontColor=#333333;strokeColor=#666666;" parent="1" vertex="1">
          <mxGeometry x="80" y="233.5" width="100" height="73" as="geometry" />
        </mxCell>
        <mxCell id="_OwsMBPYl4VA8BwLDQy6-16" value="" style="shape=mxgraph.gcp2.doubleRect;strokeColor=#dddddd;shadow=1;strokeWidth=1;rounded=1;absoluteArcSize=1;arcSize=2;" parent="1" vertex="1">
          <mxGeometry x="441" y="641" width="178" height="68" as="geometry" />
        </mxCell>
        <mxCell id="_OwsMBPYl4VA8BwLDQy6-17" value="&lt;font color=&quot;#000000&quot;&gt;API Portal&lt;/font&gt;" style="editableCssRules=.*;html=1;fontColor=#999999;shape=image;verticalLabelPosition=middle;labelBackgroundColor=#ffffff;verticalAlign=middle;labelPosition=right;align=left;spacingLeft=20;part=1;points=[];imageAspect=0;image=data:image/svg+xml,PHN2ZyB4bWxucz0iaHR0cDovL3d3dy53My5vcmcvMjAwMC9zdmciIHhtbG5zOnY9Imh0dHBzOi8vdmVjdGEuaW8vbmFubyIgd2lkdGg9IjIwIiBoZWlnaHQ9IjE0LjE0MzAxOTY3NjIwODQ5NiIgdmlld0JveD0iMCAwLjAwMDQ4OTk2NjI0NTM2ODEyMzEgMjAgMTQuMTQzMDE5Njc2MjA4NDk2Ij4mI3hhOwk8c3R5bGUgdHlwZT0idGV4dC9jc3MiPiYjeGE7CS5zdDB7ZmlsbDojNDI4NWY0O30mI3hhOwkuc3Qxe2ZpbGw6IzY2OWRmNjt9JiN4YTsJPC9zdHlsZT4mI3hhOwk8cGF0aCBjbGFzcz0ic3QwIiBkPSJNMTAgMS40NzJhNS41OSA1LjU5IDAgMCAxIDQgMS42bDEtMWE3LjA3IDcuMDcgMCAwIDAtMTAgMGgwbDEgMWE1LjU5IDUuNTkgMCAwIDEgNC0xLjZ6bTAgMTEuMmE1LjU5IDUuNTkgMCAwIDEtNC0xLjZsLTEgMWE3LjA3IDcuMDcgMCAwIDAgMTAgMGgwbC0xLTFhNS41OSA1LjU5IDAgMCAxLTQgMS42eiIvPiYjeGE7CTxwYXRoIGNsYXNzPSJzdDEiIGQ9Ik0xMCAxMC4xNDJhMy4wNiAzLjA2IDAgMCAxLTMtMi4zNEgzLjExdjIuMzhMMCA3LjA3MmwzLjExLTMuMXYyLjM4SDdhMy4wNiAzLjA2IDAgMCAxIDMtMi4zNGgwYTMuMDYgMy4wNiAwIDAgMSAzIDIuMzRoMy45MXYtMi4zOUwyMCA3LjA3MmwtMy4xMSAzLjEydi0yLjM5SDEzYTMuMDYgMy4wNiAwIDAgMS0zIDIuMzR6bTAtNC42OGExLjYxIDEuNjEgMCAxIDAgMS42MSAxLjYxaDBBMS42MSAxLjYxIDAgMCAwIDEwIDUuNDYyeiIvPiYjeGE7PC9zdmc+;rounded=1;" parent="_OwsMBPYl4VA8BwLDQy6-16" vertex="1">
          <mxGeometry width="30" height="21" relative="1" as="geometry">
            <mxPoint x="15" y="19.5" as="offset" />
          </mxGeometry>
        </mxCell>
        <mxCell id="_OwsMBPYl4VA8BwLDQy6-48" style="edgeStyle=none;rounded=1;orthogonalLoop=1;jettySize=auto;html=1;entryX=0.989;entryY=0.662;entryDx=0;entryDy=0;entryPerimeter=0;dashed=1;fontSize=12;fontColor=#CC99FF;endArrow=classic;endFill=1;" parent="1" source="_OwsMBPYl4VA8BwLDQy6-19" target="_OwsMBPYl4VA8BwLDQy6-16" edge="1">
          <mxGeometry relative="1" as="geometry" />
        </mxCell>
        <mxCell id="_OwsMBPYl4VA8BwLDQy6-49" style="edgeStyle=none;rounded=1;orthogonalLoop=1;jettySize=auto;html=1;entryX=1;entryY=0.5;entryDx=0;entryDy=0;dashed=1;fontSize=12;fontColor=#CC99FF;endArrow=classic;endFill=1;" parent="1" source="_OwsMBPYl4VA8BwLDQy6-19" target="_OwsMBPYl4VA8BwLDQy6-22" edge="1">
          <mxGeometry relative="1" as="geometry" />
        </mxCell>
        <mxCell id="_OwsMBPYl4VA8BwLDQy6-19" value="Admins&lt;br&gt;" style="outlineConnect=0;strokeColor=#b85450;fillColor=#f8cecc;dashed=0;verticalLabelPosition=bottom;verticalAlign=top;align=center;html=1;fontSize=12;fontStyle=0;aspect=fixed;shape=mxgraph.aws4.illustration_users;pointerEvents=1;rounded=1;" parent="1" vertex="1">
          <mxGeometry x="850" y="510" width="100" height="100" as="geometry" />
        </mxCell>
        <mxCell id="_OwsMBPYl4VA8BwLDQy6-22" value="" style="strokeColor=#dddddd;shadow=1;strokeWidth=1;rounded=1;absoluteArcSize=1;arcSize=2;" parent="1" vertex="1">
          <mxGeometry x="449" y="439" width="170" height="60" as="geometry" />
        </mxCell>
        <mxCell id="_OwsMBPYl4VA8BwLDQy6-23" value="&lt;font color=&quot;#000000&quot;&gt;API Manager&lt;/font&gt;" style="editableCssRules=.*;html=1;fontColor=#999999;shape=image;verticalLabelPosition=middle;labelBackgroundColor=#ffffff;verticalAlign=middle;labelPosition=right;align=left;spacingLeft=20;part=1;points=[];imageAspect=0;image=data:image/svg+xml,PHN2ZyB4bWxucz0iaHR0cDovL3d3dy53My5vcmcvMjAwMC9zdmciIHhtbG5zOnY9Imh0dHBzOi8vdmVjdGEuaW8vbmFubyIgd2lkdGg9IjIwIiBoZWlnaHQ9IjE0LjE0MzAxOTY3NjIwODQ5NiIgdmlld0JveD0iMCAwLjAwMDQ4OTk2NjI0NTM2ODEyMzEgMjAgMTQuMTQzMDE5Njc2MjA4NDk2Ij4mI3hhOwk8c3R5bGUgdHlwZT0idGV4dC9jc3MiPiYjeGE7CS5zdDB7ZmlsbDojNDI4NWY0O30mI3hhOwkuc3Qxe2ZpbGw6IzY2OWRmNjt9JiN4YTsJPC9zdHlsZT4mI3hhOwk8cGF0aCBjbGFzcz0ic3QwIiBkPSJNMTAgMS40NzJhNS41OSA1LjU5IDAgMCAxIDQgMS42bDEtMWE3LjA3IDcuMDcgMCAwIDAtMTAgMGgwbDEgMWE1LjU5IDUuNTkgMCAwIDEgNC0xLjZ6bTAgMTEuMmE1LjU5IDUuNTkgMCAwIDEtNC0xLjZsLTEgMWE3LjA3IDcuMDcgMCAwIDAgMTAgMGgwbC0xLTFhNS41OSA1LjU5IDAgMCAxLTQgMS42eiIvPiYjeGE7CTxwYXRoIGNsYXNzPSJzdDEiIGQ9Ik0xMCAxMC4xNDJhMy4wNiAzLjA2IDAgMCAxLTMtMi4zNEgzLjExdjIuMzhMMCA3LjA3MmwzLjExLTMuMXYyLjM4SDdhMy4wNiAzLjA2IDAgMCAxIDMtMi4zNGgwYTMuMDYgMy4wNiAwIDAgMSAzIDIuMzRoMy45MXYtMi4zOUwyMCA3LjA3MmwtMy4xMSAzLjEydi0yLjM5SDEzYTMuMDYgMy4wNiAwIDAgMS0zIDIuMzR6bTAtNC42OGExLjYxIDEuNjEgMCAxIDAgMS42MSAxLjYxaDBBMS42MSAxLjYxIDAgMCAwIDEwIDUuNDYyeiIvPiYjeGE7PC9zdmc+;rounded=1;" parent="_OwsMBPYl4VA8BwLDQy6-22" vertex="1">
          <mxGeometry width="30" height="21" relative="1" as="geometry">
            <mxPoint x="15" y="19.5" as="offset" />
          </mxGeometry>
        </mxCell>
        <mxCell id="_OwsMBPYl4VA8BwLDQy6-44" style="edgeStyle=none;rounded=1;orthogonalLoop=1;jettySize=auto;html=1;dashed=1;fontSize=12;fontColor=#CC99FF;endArrow=classic;endFill=1;startArrow=classic;startFill=1;" parent="1" source="_OwsMBPYl4VA8BwLDQy6-26" target="_OwsMBPYl4VA8BwLDQy6-41" edge="1">
          <mxGeometry relative="1" as="geometry" />
        </mxCell>
        <mxCell id="_OwsMBPYl4VA8BwLDQy6-26" value="" style="strokeColor=#dddddd;shadow=1;strokeWidth=1;rounded=1;absoluteArcSize=1;arcSize=2;" parent="1" vertex="1">
          <mxGeometry x="441" y="240" width="170" height="60" as="geometry" />
        </mxCell>
        <mxCell id="_OwsMBPYl4VA8BwLDQy6-27" value="&lt;font color=&quot;#000000&quot;&gt;API Gateway&lt;/font&gt;&lt;br&gt;" style="editableCssRules=.*;html=1;fontColor=#999999;shape=image;verticalLabelPosition=middle;labelBackgroundColor=#ffffff;verticalAlign=middle;labelPosition=right;align=left;spacingLeft=20;part=1;points=[];imageAspect=0;image=data:image/svg+xml,PHN2ZyB4bWxucz0iaHR0cDovL3d3dy53My5vcmcvMjAwMC9zdmciIHhtbG5zOnY9Imh0dHBzOi8vdmVjdGEuaW8vbmFubyIgd2lkdGg9IjIwIiBoZWlnaHQ9IjE0LjE0MzAxOTY3NjIwODQ5NiIgdmlld0JveD0iMCAwLjAwMDQ4OTk2NjI0NTM2ODEyMzEgMjAgMTQuMTQzMDE5Njc2MjA4NDk2Ij4mI3hhOwk8c3R5bGUgdHlwZT0idGV4dC9jc3MiPiYjeGE7CS5zdDB7ZmlsbDojNDI4NWY0O30mI3hhOwkuc3Qxe2ZpbGw6IzY2OWRmNjt9JiN4YTsJPC9zdHlsZT4mI3hhOwk8cGF0aCBjbGFzcz0ic3QwIiBkPSJNMTAgMS40NzJhNS41OSA1LjU5IDAgMCAxIDQgMS42bDEtMWE3LjA3IDcuMDcgMCAwIDAtMTAgMGgwbDEgMWE1LjU5IDUuNTkgMCAwIDEgNC0xLjZ6bTAgMTEuMmE1LjU5IDUuNTkgMCAwIDEtNC0xLjZsLTEgMWE3LjA3IDcuMDcgMCAwIDAgMTAgMGgwbC0xLTFhNS41OSA1LjU5IDAgMCAxLTQgMS42eiIvPiYjeGE7CTxwYXRoIGNsYXNzPSJzdDEiIGQ9Ik0xMCAxMC4xNDJhMy4wNiAzLjA2IDAgMCAxLTMtMi4zNEgzLjExdjIuMzhMMCA3LjA3MmwzLjExLTMuMXYyLjM4SDdhMy4wNiAzLjA2IDAgMCAxIDMtMi4zNGgwYTMuMDYgMy4wNiAwIDAgMSAzIDIuMzRoMy45MXYtMi4zOUwyMCA3LjA3MmwtMy4xMSAzLjEydi0yLjM5SDEzYTMuMDYgMy4wNiAwIDAgMS0zIDIuMzR6bTAtNC42OGExLjYxIDEuNjEgMCAxIDAgMS42MSAxLjYxaDBBMS42MSAxLjYxIDAgMCAwIDEwIDUuNDYyeiIvPiYjeGE7PC9zdmc+;rounded=1;" parent="_OwsMBPYl4VA8BwLDQy6-26" vertex="1">
          <mxGeometry width="30" height="21" relative="1" as="geometry">
            <mxPoint x="15" y="19.5" as="offset" />
          </mxGeometry>
        </mxCell>
        <mxCell id="_OwsMBPYl4VA8BwLDQy6-28" value="" style="html=1;shadow=0;dashed=0;align=center;verticalAlign=middle;shape=mxgraph.arrows2.twoWayArrow;dy=0.6;dx=35;rotation=90;rounded=1;fillColor=#B3B3B3;" parent="1" vertex="1">
          <mxGeometry x="466" y="342.5" width="120" height="60" as="geometry" />
        </mxCell>
        <mxCell id="_OwsMBPYl4VA8BwLDQy6-29" value="" style="html=1;shadow=0;dashed=0;align=center;verticalAlign=middle;shape=mxgraph.arrows2.twoWayArrow;dy=0.6;dx=35;rotation=90;rounded=1;fillColor=#B3B3B3;" parent="1" vertex="1">
          <mxGeometry x="464" y="537" width="124" height="60" as="geometry" />
        </mxCell>
        <mxCell id="_OwsMBPYl4VA8BwLDQy6-31" value="&lt;font&gt;API MANAGEMENT &lt;br&gt;SYSTEM&lt;/font&gt;" style="text;html=1;resizable=0;autosize=1;align=center;verticalAlign=middle;points=[];fillColor=none;strokeColor=none;rounded=0;labelBackgroundColor=default;fontSize=16;fontColor=default;" parent="1" vertex="1">
          <mxGeometry x="449" y="150" width="170" height="50" as="geometry" />
        </mxCell>
        <mxCell id="_OwsMBPYl4VA8BwLDQy6-34" value="System" style="text;html=1;resizable=0;autosize=1;align=center;verticalAlign=middle;points=[];fillColor=none;strokeColor=none;rounded=0;labelBackgroundColor=default;fontSize=16;fontColor=default;" parent="1" vertex="1">
          <mxGeometry x="945" y="360" width="80" height="30" as="geometry" />
        </mxCell>
        <mxCell id="_OwsMBPYl4VA8BwLDQy6-41" value="" style="aspect=fixed;html=1;points=[];align=center;image;fontSize=12;image=img/lib/azure2/security/Conditional_Access.svg;rounded=1;labelBackgroundColor=default;labelBorderColor=none;fontColor=#CC99FF;fillColor=#000000;" parent="1" vertex="1">
          <mxGeometry x="882.06" y="232.5" width="65.88" height="80" as="geometry" />
        </mxCell>
        <mxCell id="_OwsMBPYl4VA8BwLDQy6-51" value="Mobile client" style="sketch=0;outlineConnect=0;fontColor=#232F3E;gradientColor=none;strokeColor=#232F3E;fillColor=#ffffff;dashed=0;verticalLabelPosition=bottom;verticalAlign=top;align=center;html=1;fontSize=12;fontStyle=0;aspect=fixed;shape=mxgraph.aws4.resourceIcon;resIcon=mxgraph.aws4.mobile_client;rounded=1;labelBackgroundColor=default;labelBorderColor=none;" parent="1" vertex="1">
          <mxGeometry x="-10" y="227.5" width="90" height="90" as="geometry" />
        </mxCell>
        <mxCell id="oUci_EhVsHcZqZf8ohFG-2" value="" style="aspect=fixed;html=1;points=[];align=center;image;fontSize=12;image=img/lib/azure2/databases/Azure_SQL.svg;" parent="1" vertex="1">
          <mxGeometry x="970" y="181.5" width="64" height="46" as="geometry" />
        </mxCell>
        <mxCell id="oUci_EhVsHcZqZf8ohFG-5" value="" style="aspect=fixed;html=1;points=[];align=center;image;fontSize=12;image=img/lib/azure2/databases/Data_Factory.svg;fillColor=none;" parent="1" vertex="1">
          <mxGeometry x="970" y="260" width="68" height="68" as="geometry" />
        </mxCell>
      </root>
    </mxGraphModel>
  </diagram>
  <diagram id="xwStXLg9mZhatjrdMVol" name="PÃ¡gina-7">
    <mxGraphModel dx="1050" dy="509" grid="1" gridSize="10" guides="1" tooltips="1" connect="1" arrows="1" fold="1" page="1" pageScale="1" pageWidth="827" pageHeight="1169" math="0" shadow="0">
      <root>
        <mxCell id="0" />
        <mxCell id="1" parent="0" />
        <mxCell id="YtJu5w217AgajZutVxa5-1" value="" style="shape=actor;whiteSpace=wrap;html=1;shadow=0;fillColor=#ffffff;gradientColor=none;" vertex="1" parent="1">
          <mxGeometry x="510" y="478" width="40" height="60" as="geometry" />
        </mxCell>
        <mxCell id="YtJu5w217AgajZutVxa5-2" style="edgeStyle=orthogonalEdgeStyle;rounded=0;orthogonalLoop=1;jettySize=auto;html=1;entryX=0.5;entryY=1;entryDx=0;entryDy=0;" edge="1" parent="1" target="YtJu5w217AgajZutVxa5-12">
          <mxGeometry relative="1" as="geometry">
            <mxPoint x="560" y="530" as="sourcePoint" />
            <mxPoint x="620" y="458" as="targetPoint" />
            <Array as="points">
              <mxPoint x="560" y="518" />
              <mxPoint x="560" y="470" />
              <mxPoint x="460" y="470" />
            </Array>
          </mxGeometry>
        </mxCell>
        <mxCell id="YtJu5w217AgajZutVxa5-3" value="" style="shape=actor;whiteSpace=wrap;html=1;shadow=0;fillColor=#ffffff;gradientColor=none;" vertex="1" parent="1">
          <mxGeometry x="490" y="478" width="40" height="60" as="geometry" />
        </mxCell>
        <mxCell id="YtJu5w217AgajZutVxa5-4" value="" style="html=1;shadow=0;dashed=0;align=center;verticalAlign=middle;shape=mxgraph.arrows2.arrow;dy=0;dx=12;notch=11.6;fillColor=#dae8fc;strokeColor=#6c8ebf;" vertex="1" parent="1">
          <mxGeometry x="370" y="330" width="1450" height="20" as="geometry" />
        </mxCell>
        <mxCell id="YtJu5w217AgajZutVxa5-5" value="PlanificaciÃ³n e identificaciÃ³n" style="rounded=1;whiteSpace=wrap;html=1;fillColor=#D5E8D4;" vertex="1" parent="1">
          <mxGeometry x="400" y="310" width="120" height="60" as="geometry" />
        </mxCell>
        <mxCell id="YtJu5w217AgajZutVxa5-6" value="ValidaciÃ³n de la definiciÃ³n" style="rounded=1;whiteSpace=wrap;html=1;fillColor=#D5E8D4;" vertex="1" parent="1">
          <mxGeometry x="720" y="310" width="120" height="60" as="geometry" />
        </mxCell>
        <mxCell id="YtJu5w217AgajZutVxa5-7" value="CreaciÃ³n" style="rounded=1;whiteSpace=wrap;html=1;fillColor=#FFF2CC;" vertex="1" parent="1">
          <mxGeometry x="900" y="315" width="120" height="60" as="geometry" />
        </mxCell>
        <mxCell id="YtJu5w217AgajZutVxa5-8" value="ImplementaciÃ³n" style="rounded=1;whiteSpace=wrap;html=1;fillColor=#FFF2CC;" vertex="1" parent="1">
          <mxGeometry x="1080" y="315" width="120" height="60" as="geometry" />
        </mxCell>
        <mxCell id="YtJu5w217AgajZutVxa5-9" value="PublicaciÃ³n" style="rounded=1;whiteSpace=wrap;html=1;fillColor=#F8CECC;" vertex="1" parent="1">
          <mxGeometry x="1325" y="310" width="120" height="60" as="geometry" />
        </mxCell>
        <mxCell id="YtJu5w217AgajZutVxa5-10" value="MonitorizaciÃ³n" style="rounded=1;whiteSpace=wrap;html=1;fillColor=#F8CECC;" vertex="1" parent="1">
          <mxGeometry x="1490" y="310" width="120" height="60" as="geometry" />
        </mxCell>
        <mxCell id="YtJu5w217AgajZutVxa5-11" value="Retirada" style="rounded=1;whiteSpace=wrap;html=1;fillColor=#F8CECC;" vertex="1" parent="1">
          <mxGeometry x="1650" y="310" width="120" height="60" as="geometry" />
        </mxCell>
        <mxCell id="YtJu5w217AgajZutVxa5-12" value="Analizar las necesidades del negocio para obtener un conjunto de APIs que aporten valor" style="shape=ext;rounded=1;html=1;whiteSpace=wrap;dashed=1;fillColor=#ffffff;shadow=0;glass=0;" vertex="1" parent="1">
          <mxGeometry x="400" y="375" width="120" height="80" as="geometry" />
        </mxCell>
        <mxCell id="YtJu5w217AgajZutVxa5-13" value="Se realiza la definiciÃ³n de la interfce&amp;nbsp;en el lenguaje de definiciÃ³n de APIs" style="shape=ext;rounded=1;html=1;whiteSpace=wrap;dashed=1;fillColor=#ffffff;" vertex="1" parent="1">
          <mxGeometry x="900" y="380" width="120" height="70" as="geometry" />
        </mxCell>
        <mxCell id="YtJu5w217AgajZutVxa5-14" value="PublicaciÃ³n en catÃ¡logo, soporte a desarrolladores, feedback" style="shape=ext;rounded=1;html=1;whiteSpace=wrap;dashed=1;fillColor=#ffffff;" vertex="1" parent="1">
          <mxGeometry x="1330" y="375" width="120" height="60" as="geometry" />
        </mxCell>
        <mxCell id="YtJu5w217AgajZutVxa5-15" value="RevisiÃ³n del diseÃ±o verificando el cumplimiento de la nomenclatura establecida" style="shape=ext;rounded=1;html=1;whiteSpace=wrap;dashed=1;fillColor=#ffffff;gradientColor=none;" vertex="1" parent="1">
          <mxGeometry x="720" y="375" width="120" height="85" as="geometry" />
        </mxCell>
        <mxCell id="YtJu5w217AgajZutVxa5-16" style="edgeStyle=orthogonalEdgeStyle;rounded=0;orthogonalLoop=1;jettySize=auto;html=1;entryX=1;entryY=0.75;entryDx=0;entryDy=0;" edge="1" parent="1" source="YtJu5w217AgajZutVxa5-17" target="YtJu5w217AgajZutVxa5-32">
          <mxGeometry relative="1" as="geometry">
            <Array as="points">
              <mxPoint x="1250" y="410" />
              <mxPoint x="1250" y="515" />
            </Array>
          </mxGeometry>
        </mxCell>
        <mxCell id="YtJu5w217AgajZutVxa5-17" value="Desarrollo de la lÃ³gica de negocio, partiendo de la definiciÃ³n del API" style="shape=ext;rounded=1;html=1;whiteSpace=wrap;dashed=1;fillColor=#ffffff;" vertex="1" parent="1">
          <mxGeometry x="1080" y="380" width="120" height="70" as="geometry" />
        </mxCell>
        <mxCell id="YtJu5w217AgajZutVxa5-18" value="MonitorizaciÃ³n funcional y tÃ©cnica, KPI" style="shape=ext;rounded=1;html=1;whiteSpace=wrap;dashed=1;fillColor=#ffffff;" vertex="1" parent="1">
          <mxGeometry x="1490" y="375" width="120" height="50" as="geometry" />
        </mxCell>
        <mxCell id="YtJu5w217AgajZutVxa5-19" value="Cuando este API deja de tener utilidad para los consumidores" style="shape=ext;rounded=1;html=1;whiteSpace=wrap;dashed=1;fillColor=#ffffff;" vertex="1" parent="1">
          <mxGeometry x="1650" y="380" width="120" height="50" as="geometry" />
        </mxCell>
        <mxCell id="YtJu5w217AgajZutVxa5-20" value="API Designer" style="text;html=1;align=center;verticalAlign=middle;resizable=0;points=[];autosize=1;" vertex="1" parent="1">
          <mxGeometry x="860" y="538" width="90" height="20" as="geometry" />
        </mxCell>
        <mxCell id="YtJu5w217AgajZutVxa5-21" value="Development&lt;br&gt;team" style="text;html=1;align=center;verticalAlign=middle;resizable=0;points=[];autosize=1;" vertex="1" parent="1">
          <mxGeometry x="1110" y="538" width="90" height="30" as="geometry" />
        </mxCell>
        <mxCell id="YtJu5w217AgajZutVxa5-22" value="Contributors" style="text;html=1;align=center;verticalAlign=middle;resizable=0;points=[];autosize=1;" vertex="1" parent="1">
          <mxGeometry x="510" y="540" width="80" height="20" as="geometry" />
        </mxCell>
        <mxCell id="YtJu5w217AgajZutVxa5-23" value="DESARROLLO" style="html=1;shadow=0;dashed=0;align=center;verticalAlign=middle;shape=mxgraph.arrows2.arrow;dy=0;dx=10;notch=10;fillColor=#FFF2CC;" vertex="1" parent="1">
          <mxGeometry x="860" y="270" width="410" height="30" as="geometry" />
        </mxCell>
        <mxCell id="YtJu5w217AgajZutVxa5-24" value="GESTIÃN" style="html=1;shadow=0;dashed=0;align=center;verticalAlign=middle;shape=mxgraph.arrows2.arrow;dy=0;dx=10;notch=10;fillColor=#F8CECC;" vertex="1" parent="1">
          <mxGeometry x="1260" y="270" width="560" height="30" as="geometry" />
        </mxCell>
        <mxCell id="YtJu5w217AgajZutVxa5-25" value="DISEÃO" style="html=1;shadow=0;dashed=0;align=center;verticalAlign=middle;shape=mxgraph.arrows2.arrow;dy=0;dx=10;notch=0;fillColor=#D5E8D4;" vertex="1" parent="1">
          <mxGeometry x="370" y="270" width="500" height="30" as="geometry" />
        </mxCell>
        <mxCell id="YtJu5w217AgajZutVxa5-26" style="edgeStyle=orthogonalEdgeStyle;rounded=0;orthogonalLoop=1;jettySize=auto;html=1;" edge="1" parent="1" source="YtJu5w217AgajZutVxa5-27">
          <mxGeometry relative="1" as="geometry">
            <mxPoint x="1270" y="370" as="targetPoint" />
            <Array as="points">
              <mxPoint x="1270" y="510" />
              <mxPoint x="1270" y="370" />
            </Array>
          </mxGeometry>
        </mxCell>
        <mxCell id="YtJu5w217AgajZutVxa5-27" value="" style="shape=actor;whiteSpace=wrap;html=1;shadow=0;fillColor=#ffffff;gradientColor=none;" vertex="1" parent="1">
          <mxGeometry x="1370" y="470" width="40" height="60" as="geometry" />
        </mxCell>
        <mxCell id="YtJu5w217AgajZutVxa5-28" value="" style="shape=actor;whiteSpace=wrap;html=1;shadow=0;fillColor=#ffffff;gradientColor=none;" vertex="1" parent="1">
          <mxGeometry x="885" y="470" width="40" height="60" as="geometry" />
        </mxCell>
        <mxCell id="YtJu5w217AgajZutVxa5-29" value="" style="shape=actor;whiteSpace=wrap;html=1;shadow=0;fillColor=#ffffff;gradientColor=none;" vertex="1" parent="1">
          <mxGeometry x="470" y="478" width="40" height="60" as="geometry" />
        </mxCell>
        <mxCell id="YtJu5w217AgajZutVxa5-30" value="" style="shape=actor;whiteSpace=wrap;html=1;shadow=0;fillColor=#ffffff;gradientColor=none;" vertex="1" parent="1">
          <mxGeometry x="450" y="478" width="40" height="60" as="geometry" />
        </mxCell>
        <mxCell id="YtJu5w217AgajZutVxa5-31" value="" style="shape=link;html=1;width=3;" edge="1" parent="1">
          <mxGeometry width="50" height="50" relative="1" as="geometry">
            <mxPoint x="860" y="365" as="sourcePoint" />
            <mxPoint x="860" y="315" as="targetPoint" />
          </mxGeometry>
        </mxCell>
        <mxCell id="YtJu5w217AgajZutVxa5-32" value="" style="shape=actor;whiteSpace=wrap;html=1;shadow=0;fillColor=#ffffff;gradientColor=none;" vertex="1" parent="1">
          <mxGeometry x="1130" y="470" width="40" height="60" as="geometry" />
        </mxCell>
        <mxCell id="YtJu5w217AgajZutVxa5-33" value="" style="shape=link;html=1;width=3;" edge="1" parent="1">
          <mxGeometry width="50" height="50" relative="1" as="geometry">
            <mxPoint x="1270" y="370" as="sourcePoint" />
            <mxPoint x="1270" y="320" as="targetPoint" />
          </mxGeometry>
        </mxCell>
        <mxCell id="YtJu5w217AgajZutVxa5-34" value="QA" style="text;html=1;align=center;verticalAlign=middle;resizable=0;points=[];autosize=1;" vertex="1" parent="1">
          <mxGeometry x="1375" y="538" width="30" height="20" as="geometry" />
        </mxCell>
        <mxCell id="YtJu5w217AgajZutVxa5-35" value="" style="shape=flexArrow;endArrow=classic;html=1;endWidth=9;endSize=12;fillColor=#dae8fc;strokeColor=none;strokeWidth=2;" edge="1" parent="1">
          <mxGeometry width="50" height="50" relative="1" as="geometry">
            <mxPoint x="1535" y="440" as="sourcePoint" />
            <mxPoint x="420" y="463" as="targetPoint" />
            <Array as="points">
              <mxPoint x="1535" y="510" />
              <mxPoint x="1535" y="590" />
              <mxPoint x="890" y="593" />
              <mxPoint x="420" y="593" />
            </Array>
          </mxGeometry>
        </mxCell>
        <mxCell id="YtJu5w217AgajZutVxa5-36" style="edgeStyle=orthogonalEdgeStyle;rounded=0;orthogonalLoop=1;jettySize=auto;html=1;exitX=0;exitY=0.75;exitDx=0;exitDy=0;" edge="1" parent="1" source="YtJu5w217AgajZutVxa5-28">
          <mxGeometry relative="1" as="geometry">
            <mxPoint x="850" y="464.5" as="sourcePoint" />
            <mxPoint x="860" y="370" as="targetPoint" />
            <Array as="points">
              <mxPoint x="860" y="515" />
            </Array>
          </mxGeometry>
        </mxCell>
        <mxCell id="YtJu5w217AgajZutVxa5-37" value="DiseÃ±o de la definiciÃ³n" style="rounded=1;whiteSpace=wrap;html=1;fillColor=#D5E8D4;" vertex="1" parent="1">
          <mxGeometry x="560" y="310" width="120" height="60" as="geometry" />
        </mxCell>
        <mxCell id="YtJu5w217AgajZutVxa5-38" value="Definir la interface de los recursos (operaciones, input, output, codigos de retorno HTTP...)" style="shape=ext;rounded=1;html=1;whiteSpace=wrap;dashed=1;fillColor=#ffffff;shadow=0;glass=0;" vertex="1" parent="1">
          <mxGeometry x="560" y="375" width="120" height="80" as="geometry" />
        </mxCell>
      </root>
    </mxGraphModel>
  </diagram>
</mxfile>
